<?xml version="1.0" encoding="utf-8"?>
<!-- Generator: Adobe Illustrator 16.0.0, SVG Export Plug-In . SVG Version: 6.00 Build 0)  -->
<!DOCTYPE svg PUBLIC "-//W3C//DTD SVG 1.1//EN" "http://www.w3.org/Graphics/SVG/1.1/DTD/svg11.dtd">
<svg version="1.1" xmlns="http://www.w3.org/2000/svg" xmlns:xlink="http://www.w3.org/1999/xlink" x="0px" y="0px" width="1000px"
	 height="1000px" viewBox="0 0 1000 1000" enable-background="new 0 0 1000 1000" xml:space="preserve">
<g id="Layer_1" display="none">
</g>
<g id="Layer_2">
	<g>
		<path fill="#96DE2A" d="M487.843,957.004l-26.248-50.221v-14.785h52.496v14.785L487.843,957.004z M760.654,209.756
			c-20.043-23.899-72.159-83.738-104.153-99.436c-10.383-5.094-20.79-7.57-31.818-7.57c-11.808,0-22.536,2.752-33.896,5.666
			c-12.303,3.156-25.023,6.419-40.739,6.521c-25.097,0.148-54.366-1.956-85.427-4.202c-32.643-2.36-66.398-4.8-98.345-4.8
			c-27.919,0-50.884,1.892-70.206,5.783c-60.216,12.128-120.162,39.939-150.774,55.571l-0.144-2.025
			c9.068-7.719,29.669-24.175,59.148-41.397c36.985-21.607,95.995-48.917,167.082-56.315c21.375-2.225,43.747-3.353,66.496-3.353
			c133.935,0,268.903,37.805,364.085,101.565C788.633,190.658,771.14,203.711,760.654,209.756z"/>
		<path fill="#5A5050" d="M815.7,136.463c-52.515-37.394-115.64-66.48-187.62-86.451c-65.584-18.196-136.195-27.814-204.202-27.814
			c-23.782,0-47.2,1.182-69.602,3.514c-76.792,7.993-140.231,37.437-179.927,60.729c-43.082,25.279-67.949,48.601-68.986,49.582
			c-3.268,3.087-4.978,7.478-4.66,11.962l2.302,32.503c0.365,5.149,3.353,9.748,7.907,12.176s10.041,2.344,14.518-0.224
			c0.822-0.471,83.149-47.319,162.563-63.314c17.349-3.494,38.375-5.192,64.283-5.192c21.047,0,43.183,1.125,65.319,2.571v771.961
			c0,2.42,0.585,4.804,1.706,6.948l41.248,78.92c2.587,4.949,7.709,8.052,13.294,8.052s10.707-3.103,13.294-8.052l41.248-78.92
			c1.121-2.145,1.706-4.528,1.706-6.948V378.285c8.741,4.127,18.333,9.5,22.387,14.934c10.037,13.455,9.821,48.197,8.785,73.159
			c-0.157,3.805-0.784,10.849-1.578,19.767c-2.695,30.283-7.206,80.967-5.343,131.188c2.401,64.708,14.566,107.208,37.19,129.927
			c12.137,12.188,27.487,18.527,44.691,18.527c2.017,0,4.061-0.088,6.126-0.263c17.814-1.51,32.186-10.061,41.561-24.728
			c17.222-26.943,17.979-73.972,2.317-143.774c-7.83-34.901-19.604-74.342-34.047-114.058c-1.723-4.737-3.469-9.894-5.316-15.354
			c-10.819-31.957-25.636-75.723-61.839-107.749c-10.911-9.652-31.554-16.483-54.935-18.583v-208.35
			c1.083,0.007,2.169,0.016,3.24,0.016c0.973,0,1.949-0.003,2.91-0.009c19.404-0.125,34.597-4.022,48-7.461
			c9.884-2.535,18.42-4.725,26.441-4.725c6.431,0,12.342,1.431,18.604,4.503c27.188,13.34,82.57,77.088,101.616,100.526
			c2.905,3.575,7.218,5.545,11.651,5.545c1.617,0,3.252-0.262,4.839-0.804c0.006-0.002,0.012-0.004,0.018-0.006
			c0.001,0,0.003-0.001,0.005-0.002c0.008-0.002,0.017-0.005,0.025-0.009c0.02-0.006,0.038-0.013,0.058-0.02
			c3.123-1.091,48.686-17.883,73.312-75.944C823.557,148.062,821.433,140.544,815.7,136.463z M589.566,488.804
			c0.861-9.677,1.483-16.669,1.671-21.182c0.972-23.42,0.498-41.762-1.633-56.354c13.817,21.581,21.904,45.464,28.844,65.962
			c1.903,5.623,3.701,10.935,5.539,15.987c14.013,38.534,25.413,76.7,32.969,110.373c17.87,79.647,8.721,110.029,1.677,121.05
			c-4.392,6.871-10.195,10.262-18.816,10.992c-11.021,0.933-19.614-2.097-27.026-9.54c-11.558-11.606-25.879-40.09-28.469-109.871
			C582.527,567.889,586.934,518.383,589.566,488.804z M447.595,370.603c14.902-0.002,36.49-0.005,52.496-0.007v479.402h-52.496
			V370.603z M500.091,340.596c-16.006,0.001-37.593,0.004-52.496,0.007V128.595c0.287,0.021,0.576,0.042,0.863,0.062
			c17.902,1.294,35.213,2.543,51.633,3.356V340.596z M473.843,945.004l-26.248-50.221v-14.785h52.496v14.785L473.843,945.004z
			 M746.654,197.756c-20.043-23.899-72.159-83.738-104.153-99.436c-10.383-5.094-20.79-7.57-31.818-7.57
			c-11.808,0-22.536,2.752-33.896,5.666c-12.303,3.156-25.023,6.419-40.739,6.521c-25.097,0.148-54.366-1.956-85.427-4.202
			c-32.643-2.36-66.398-4.8-98.345-4.8c-27.919,0-50.884,1.892-70.206,5.783c-60.216,12.128-120.162,39.939-150.774,55.571
			l-0.144-2.025c9.068-7.719,29.669-24.175,59.148-41.397c36.985-21.607,95.995-48.917,167.082-56.315
			c21.375-2.225,43.747-3.353,66.496-3.353c133.935,0,268.903,37.805,364.085,101.565
			C774.633,178.658,757.14,191.711,746.654,197.756z"/>
		<path fill="#5A5050" d="M474,499c-8.284,0-15-6.716-15-15v-87c0-8.284,6.716-15,15-15s15,6.716,15,15v87
			C489,492.284,482.284,499,474,499z"/>
		<path fill="#5A5050" d="M474,816c-8.284,0-15-6.716-15-15V533c0-8.284,6.716-15,15-15s15,6.716,15,15v268
			C489,809.284,482.284,816,474,816z"/>
	</g>
</g>
</svg>
