<?xml version="1.0" encoding="utf-8"?>
<!-- Generator: Adobe Illustrator 16.0.0, SVG Export Plug-In . SVG Version: 6.00 Build 0)  -->
<!DOCTYPE svg PUBLIC "-//W3C//DTD SVG 1.1//EN" "http://www.w3.org/Graphics/SVG/1.1/DTD/svg11.dtd">
<svg version="1.1" id="Layer_1" xmlns="http://www.w3.org/2000/svg" xmlns:xlink="http://www.w3.org/1999/xlink" x="0px" y="0px"
	 width="2500px" height="1500px" viewBox="0 0 2500 1500" enable-background="new 0 0 2500 1500" xml:space="preserve">
<g>
	<path fill="#96DE2A" d="M1276.509,1199.711l-26.248-50.221v-14.785h52.496v14.785L1276.509,1199.711z M1549.32,452.464
		c-20.043-23.899-72.159-83.738-104.153-99.436c-10.383-5.094-20.79-7.57-31.818-7.57c-11.808,0-22.536,2.752-33.896,5.666
		c-12.303,3.156-25.023,6.419-40.739,6.521c-25.097,0.148-54.366-1.956-85.427-4.202c-32.643-2.36-66.398-4.8-98.346-4.8
		c-27.919,0-50.884,1.892-70.205,5.783c-60.217,12.128-120.162,39.939-150.774,55.571l-0.144-2.025
		c9.068-7.719,29.669-24.175,59.148-41.397c36.985-21.607,95.994-48.917,167.082-56.315c21.374-2.225,43.746-3.353,66.496-3.353
		c133.935,0,268.902,37.805,364.085,101.565C1577.299,433.366,1559.806,446.418,1549.32,452.464z"/>
	<path fill="#5A5050" d="M1604.366,379.171c-52.515-37.394-115.64-66.48-187.62-86.451
		c-65.584-18.196-136.195-27.814-204.201-27.814c-23.783,0-47.2,1.182-69.602,3.514c-76.793,7.993-140.231,37.437-179.927,60.729
		c-43.082,25.279-67.949,48.601-68.986,49.582c-3.268,3.087-4.979,7.478-4.66,11.962l2.302,32.503
		c0.364,5.149,3.353,9.748,7.907,12.176s10.04,2.344,14.518-0.224c0.822-0.471,83.149-47.319,162.563-63.314
		c17.349-3.494,38.376-5.192,64.282-5.192c21.048,0,43.184,1.125,65.319,2.571v771.961c0,2.42,0.585,4.805,1.706,6.949l41.248,78.92
		c2.587,4.949,7.709,8.051,13.294,8.051s10.707-3.102,13.294-8.051l41.248-78.92c1.121-2.145,1.706-4.529,1.706-6.949V620.993
		c8.741,4.127,18.333,9.5,22.387,14.934c10.037,13.455,9.821,48.197,8.785,73.159c-0.157,3.805-0.784,10.849-1.578,19.767
		c-2.695,30.282-7.206,80.968-5.343,131.188c2.401,64.707,14.566,107.207,37.19,129.926c12.137,12.189,27.487,18.527,44.691,18.527
		c2.017,0,4.061-0.088,6.126-0.262c17.814-1.51,32.186-10.061,41.561-24.729c17.222-26.943,17.979-73.971,2.317-143.773
		c-7.83-34.902-19.604-74.342-34.047-114.059c-1.723-4.737-3.469-9.894-5.316-15.354c-10.819-31.957-25.636-75.723-61.839-107.749
		c-10.911-9.652-31.554-16.483-54.935-18.583v-208.35c1.083,0.007,2.169,0.016,3.24,0.016c0.973,0,1.949-0.003,2.91-0.009
		c19.404-0.125,34.597-4.022,48-7.461c9.884-2.535,18.42-4.725,26.441-4.725c6.431,0,12.342,1.431,18.604,4.503
		c27.188,13.34,82.57,77.088,101.616,100.526c2.905,3.575,7.218,5.545,11.651,5.545c1.617,0,3.252-0.262,4.839-0.804
		c0.006-0.002,0.012-0.004,0.018-0.006c0.001,0,0.003-0.001,0.005-0.002c0.008-0.002,0.017-0.005,0.025-0.009
		c0.02-0.006,0.038-0.013,0.058-0.02c3.123-1.091,48.686-17.883,73.312-75.944C1612.223,390.769,1610.099,383.252,1604.366,379.171z
		 M1378.232,731.512c0.861-9.677,1.483-16.669,1.671-21.182c0.972-23.42,0.498-41.762-1.633-56.354
		c13.817,21.581,21.904,45.464,28.844,65.962c1.903,5.623,3.701,10.935,5.539,15.987c14.013,38.534,25.413,76.7,32.969,110.372
		c17.87,79.648,8.721,110.029,1.677,121.051c-4.392,6.871-10.195,10.262-18.816,10.992c-11.021,0.932-19.614-2.098-27.026-9.541
		c-11.558-11.605-25.879-40.09-28.469-109.871C1371.193,810.596,1375.6,761.09,1378.232,731.512z M1236.261,613.31
		c14.901-0.002,36.489-0.005,52.496-0.007v479.402h-52.496V613.31z M1288.757,583.303c-16.007,0.001-37.593,0.004-52.496,0.007
		V371.302c0.286,0.021,0.576,0.042,0.862,0.062c17.902,1.294,35.214,2.543,51.634,3.356V583.303z M1262.509,1187.711l-26.248-50.221
		v-14.785h52.496v14.785L1262.509,1187.711z M1535.32,440.464c-20.043-23.899-72.159-83.738-104.153-99.436
		c-10.383-5.094-20.79-7.57-31.818-7.57c-11.808,0-22.536,2.752-33.896,5.666c-12.303,3.156-25.023,6.419-40.739,6.521
		c-25.097,0.148-54.366-1.956-85.427-4.202c-32.643-2.36-66.398-4.8-98.346-4.8c-27.919,0-50.884,1.892-70.205,5.783
		c-60.217,12.128-120.162,39.939-150.774,55.571l-0.144-2.025c9.068-7.719,29.669-24.175,59.148-41.397
		c36.985-21.607,95.994-48.917,167.082-56.315c21.374-2.225,43.746-3.353,66.496-3.353c133.935,0,268.902,37.805,364.085,101.565
		C1563.299,421.366,1545.806,434.418,1535.32,440.464z"/>
	<path fill="#5A5050" d="M1262.666,741.708c-8.284,0-15-6.716-15-15v-87c0-8.284,6.716-15,15-15s15,6.716,15,15v87
		C1277.666,734.992,1270.95,741.708,1262.666,741.708z"/>
	<path fill="#5A5050" d="M1262.666,1058.707c-8.284,0-15-6.715-15-15v-268c0-8.283,6.716-15,15-15s15,6.717,15,15v268
		C1277.666,1051.992,1270.95,1058.707,1262.666,1058.707z"/>
</g>
</svg>
