<?xml version="1.0" encoding="utf-8"?>
<!-- Generator: Adobe Illustrator 16.0.0, SVG Export Plug-In . SVG Version: 6.00 Build 0)  -->
<!DOCTYPE svg PUBLIC "-//W3C//DTD SVG 1.1//EN" "http://www.w3.org/Graphics/SVG/1.1/DTD/svg11.dtd">
<svg version="1.1" id="Layer_1" xmlns="http://www.w3.org/2000/svg" xmlns:xlink="http://www.w3.org/1999/xlink" x="0px" y="0px"
	 width="2500px" height="1500px" viewBox="0 0 2500 1500" enable-background="new 0 0 2500 1500" xml:space="preserve">
<g>
	<path fill="#96DE2A" d="M816.28,593.053h222.594v20.856c0,32.533-26.467,59-59,59H875.28c-32.533,0-59-26.467-59-59V593.053z
		 M841.179,881.669c34.718,5.476,114.33,17.445,202.034,26.658c100.973,10.606,288.73,20.265,379.204,20.265
		c13.805,0,25.362-0.225,33.982-0.706c59.442-3.317,107.605-12.302,147.241-27.467c27.203-10.408,44.84-19.296,70.695-35.958
		c8.843,10.631,15.936,21.679,19.992,31.956c8.911,22.576,9.845,55.381,9.435,75.243c-0.515-0.014-1.029-0.033-1.543-0.033h-366.703
		c-63.281-0.6-92.358-9.057-115.72-15.853c-17.241-5.016-33.527-9.753-57.517-9.753H878.212c-8.369,0-15.932,0.724-22.755,2.153
		C850.402,934.146,843.628,910.843,841.179,881.669z M1408.082,1073.83c-121.077,0-164.246-14.273-198.933-25.743
		c-21.896-7.24-40.806-13.492-71.993-13.492c-8.282,0.002-14.996,6.717-14.996,15v24.235h-286v-44.188h232.028
		c8.284,0,15-6.716,15-15s-6.716-15-15-15H838.644c5.014-19.646,17.763-23.62,39.568-23.62h284.068
		c19.715,0,32.699,3.777,49.138,8.559c25.137,7.313,56.421,16.413,123.883,17.046c0.047,0.001,0.094,0.001,0.141,0.001h366.778
		c12.356,0,19.881,7.931,22.475,23.602h-271.748c-8.284,0-15,6.716-15,15s6.716,15,15,15h272.773v18.602H1408.082z"/>
	<g>
		<path fill="#5A5050" d="M1712.452,971.003c0.913-19.513,1.369-64.711-11.22-96.602c-16.18-40.989-66.913-88.109-108.568-100.838
			c-13.247-4.047-44.894-8.667-88.694-15.063c-63.304-9.242-153.868-22.465-203.676-38.012c-0.021-0.007-0.039-0.017-0.06-0.024
			c-0.092-0.032-0.185-0.051-0.276-0.081c-9.165-2.874-16.937-5.826-22.882-8.847c-51.276-26.059-69.006-70.417-75.681-87.117
			c-0.578-1.448-1.078-2.691-1.515-3.73c-0.01-0.025-0.021-0.049-0.031-0.074c-0.032-0.077-0.067-0.162-0.099-0.237
			c-8.406-19.767-12.722-48.931-13.471-54.332v-61.138V422.17c0-8.284-6.716-15-15-15h-391c-8.284,0-15,6.716-15,15v82.739v47.144
			v15v35.856c0,23.423,9.1,44.757,23.944,60.666l0.056,16.293c-0.034,3.801-0.977,111.611,0.002,173.279
			c0.001,0.09,0.004,0.179,0.006,0.269c0,0.019,0,0.036,0.001,0.054c0.737,43.45,10.822,77.681,17.819,96.37
			c-1.904,1.617-3.696,3.354-5.352,5.241c-11.323,12.909-16.596,31.62-16.596,58.885v63.864c0,8.284,6.716,15,15,15h316
			c8.284,0,15-6.716,15-15v-23.626c17.84,1.535,30.862,5.842,47.57,11.366c34.793,11.504,82.443,27.26,208.43,27.26h332.56
			c8.284,0,15-6.716,15-15v-49.702C1734.72,999.182,1725.363,981.09,1712.452,971.003z M1276.247,743.859l-18.501,53.357
			c-2.714,7.827,1.431,16.372,9.258,19.086c1.627,0.564,3.284,0.832,4.915,0.832c6.212,0,12.021-3.89,14.171-10.09l18.745-54.063
			c11.029,3.01,23.176,5.894,36.061,8.655l-9.396,55.783c-1.376,8.169,4.131,15.906,12.301,17.283
			c0.843,0.142,1.682,0.21,2.509,0.21c7.189,0,13.54-5.185,14.774-12.511l9.244-54.876c15.449,2.901,31.467,5.651,47.506,8.256
			l-7.412,53.724c-1.132,8.206,4.603,15.776,12.81,16.909c0.695,0.096,1.386,0.143,2.068,0.143c7.374,0,13.805-5.441,14.841-12.952
			l7.335-53.16c18.068,2.764,35.727,5.342,52.161,7.741c39.274,5.734,73.193,10.687,84.261,14.068
			c15.145,4.627,32.457,15.612,48.021,29.286c-21.299,13.42-36.552,20.888-59.998,29.858
			c-36.693,14.04-81.896,22.392-138.192,25.533c-49.106,2.743-213.835-3.529-339.264-13.256c0.898-3.517,0.548-7.363-1.308-10.813
			c-1.663-3.093-3.411-6.195-5.196-9.224c-4.209-7.136-13.402-9.512-20.54-5.305c-7.136,4.207-9.511,13.403-5.304,20.539
			c0.438,0.742,0.864,1.498,1.296,2.249c-13.451-1.175-26.218-2.389-38.065-3.633c-92.382-9.703-175.697-22.488-206.235-27.367
			c-0.383-34.688-0.297-79.219-0.141-112.505c5.656-1.954,9.831-7.193,10.099-13.534c0.285-6.729-3.91-12.61-9.937-14.762
			c0.042-6.277,0.081-11.273,0.108-14.607c10.759,4.626,22.604,7.193,35.04,7.193h104.594c49.075,0,89-39.925,89-89v-20.856h110.579
			c1.548,8.726,4.007,20.704,7.517,32.558l-63.954,11.537c-8.152,1.471-13.569,9.272-12.099,17.425
			c1.309,7.252,7.625,12.339,14.744,12.339c0.884,0,1.78-0.078,2.681-0.241l69.318-12.505c2.62,6.15,6.264,14.019,11.298,22.774
			l-51.131,34.881c-6.844,4.668-8.607,14.001-3.938,20.844c2.904,4.257,7.612,6.548,12.404,6.548c2.911,0,5.854-0.846,8.439-2.61
			l51.135-34.884c5.506,6.839,11.869,13.746,19.217,20.426l-36.082,46.833c-5.057,6.563-3.835,15.98,2.728,21.037
			c2.728,2.102,5.948,3.118,9.144,3.118c4.494,0,8.939-2.012,11.894-5.847l36.143-46.912c4.885,3.122,10.066,6.106,15.574,8.906
			C1267.224,740.182,1271.507,742.04,1276.247,743.859z M795.28,582.053h222.594v20.856c0,32.533-26.467,59-59,59H854.28
			c-32.533,0-59-26.467-59-59V582.053z M795.28,437.17h361v52.739h-361V437.17z M795.28,519.909h361v32.144h-108.406H795.28V519.909
			z M820.171,870.668c34.713,5.475,114.331,17.445,202.042,26.659c100.973,10.606,288.73,20.265,379.204,20.265
			c13.805,0,25.362-0.225,33.982-0.706c59.442-3.317,107.605-12.302,147.241-27.467c27.203-10.408,44.84-19.296,70.695-35.958
			c8.843,10.631,15.936,21.679,19.992,31.956c8.911,22.576,9.845,55.381,9.435,75.243c-0.515-0.014-1.029-0.033-1.543-0.033
			h-366.703c-63.281-0.6-92.357-9.057-115.719-15.853c-17.242-5.016-33.528-9.753-57.518-9.753H857.212
			c-8.386,0-15.96,0.727-22.793,2.161C829.365,923.216,822.608,899.981,820.171,870.668z M1387.082,1062.83
			c-121.077,0-164.247-14.273-198.934-25.743c-21.896-7.24-40.805-13.492-71.992-13.492c-8.282,0.002-14.996,6.717-14.996,15v24.235
			h-286v-44.188h232.028c8.284,0,15-6.716,15-15s-6.716-15-15-15H817.644c5.013-19.646,17.762-23.62,39.568-23.62h284.068
			c19.715,0,32.699,3.777,49.137,8.559c25.138,7.313,56.422,16.413,123.884,17.046c0.047,0.001,0.094,0.001,0.141,0.001h366.778
			c12.356,0,19.881,7.931,22.475,23.602h-271.748c-8.284,0-15,6.716-15,15s6.716,15,15,15h272.773v18.602H1387.082z"/>
		<path fill="#5A5050" d="M947.961,731.521c-5.916-2.716-12.005-5.318-18.098-7.733c-7.702-3.054-16.42,0.715-19.472,8.417
			c-3.053,7.702,0.715,16.419,8.417,19.472c5.602,2.222,11.199,4.612,16.636,7.108c2.028,0.932,4.155,1.372,6.25,1.372
			c5.681,0,11.115-3.244,13.641-8.744C958.791,743.883,955.49,734.978,947.961,731.521z"/>
		<path fill="#5A5050" d="M883.057,708.687c-6.376-1.605-12.848-3.051-19.234-4.297c-8.134-1.591-16.009,3.717-17.596,11.849
			c-1.587,8.131,3.718,16.009,11.849,17.596c5.86,1.144,11.802,2.471,17.658,3.946c1.229,0.309,2.46,0.457,3.673,0.457
			c6.711,0,12.822-4.538,14.535-11.342C895.963,718.861,891.09,710.709,883.057,708.687z"/>
		<path fill="#5A5050" d="M1045.261,798.509c-5.834-5.879-15.332-5.915-21.212-0.078c-5.879,5.836-5.915,15.333-0.078,21.213
			c4.199,4.23,8.283,8.636,12.14,13.094c2.967,3.43,7.146,5.187,11.351,5.187c3.478,0,6.972-1.202,9.808-3.655
			c6.265-5.42,6.95-14.893,1.53-21.158C1054.495,808.136,1049.94,803.224,1045.261,798.509z"/>
		<path fill="#5A5050" d="M1007.578,766.267c-5.274-3.837-10.77-7.59-16.333-11.152c-6.976-4.47-16.253-2.435-20.722,4.541
			c-4.468,6.976-2.435,16.253,4.541,20.721c5.066,3.245,10.068,6.66,14.865,10.15c2.664,1.938,5.751,2.871,8.812,2.871
			c4.635,0,9.207-2.142,12.142-6.177C1015.757,780.521,1014.277,771.141,1007.578,766.267z"/>
	</g>
</g>
</svg>
