<?xml version="1.0" encoding="utf-8"?>
<!-- Generator: Adobe Illustrator 16.0.0, SVG Export Plug-In . SVG Version: 6.00 Build 0)  -->
<!DOCTYPE svg PUBLIC "-//W3C//DTD SVG 1.1//EN" "http://www.w3.org/Graphics/SVG/1.1/DTD/svg11.dtd">
<svg version="1.1" id="Layer_1" xmlns="http://www.w3.org/2000/svg" xmlns:xlink="http://www.w3.org/1999/xlink" x="0px" y="0px"
	 width="1000px" height="1000px" viewBox="0 0 1000 1000" enable-background="new 0 0 1000 1000" xml:space="preserve">
<polygon fill="#96DE2A" points="297.613,301.149 51.606,301.149 51.606,265.315 423.986,265.315 423.986,301.149 "/>
<path fill="#96DE2A" d="M371.496,830.15l-30.822-39.521c-3.004-3.855-7.616-6.106-12.505-6.106h-30.956
	c-8.756,0-15.858,7.096-15.858,15.854v29.773H73.928v-47.789c0-19.329,10.342-32.805,19.621-32.805h39.691h265.217
	c0.019,0,0.037,0.006,0.056,0.006c0.018,0,0.039-0.006,0.056-0.006h567.363c7.852,0,16.441,9.667,18.9,24.35
	c-98.666-0.621-198.418-0.699-296.846-0.185c-8.754,0.047-15.814,7.18-15.771,15.938c0.045,8.732,7.133,15.775,15.855,15.775
	c0.027,0,0.055,0,0.082,0c98.611-0.518,198.553-0.438,297.398,0.192v24.522H371.496z"/>
<g>
	<path fill="#5C5051" d="M321.286,625.027c2.993,4.873,8.197,7.558,13.525,7.558c2.831,0,5.697-0.759,8.286-2.344
		c7.463-4.586,9.795-14.355,5.21-21.815c-6.235-10.15-12.941-20.006-19.926-29.291c-5.265-6.994-15.207-8.399-22.206-3.136
		c-6.997,5.269-8.401,15.206-3.135,22.207C309.429,606.694,315.568,615.721,321.286,625.027z"/>
	<path fill="#5C5051" d="M224.98,524.824c8.981,5.853,17.742,12.26,26.042,19.039c2.942,2.408,6.491,3.578,10.021,3.578
		c4.596,0,9.154-1.99,12.289-5.831c5.54-6.784,4.534-16.769-2.25-22.313c-9.172-7.487-18.852-14.565-28.775-21.042
		c-7.333-4.78-17.159-2.712-21.944,4.625C215.579,510.212,217.647,520.039,224.98,524.824z"/>
	<path fill="#5C5051" d="M126.262,482.542c10.544,2.557,21.012,5.643,31.114,9.174c1.731,0.604,3.496,0.89,5.229,0.89
		c6.553,0,12.688-4.095,14.972-10.633c2.887-8.268-1.474-17.309-9.743-20.2c-11.076-3.868-22.546-7.249-34.089-10.054
		c-8.51-2.068-17.086,3.16-19.152,11.67C112.528,471.899,117.75,480.474,126.262,482.542z"/>
	<path fill="#5C5051" d="M975.033,713.866c-0.469-81.042-10.463-144.651-55.094-190.714
		c-45.801-47.265-123.982-71.484-253.369-78.453l-170.92-45.773c-0.392-0.106-0.789-0.197-1.184-0.271
		c-11.479-2.145-21.136-9.78-25.883-20.433l-32.288-80.803c-0.048-0.124-0.127-0.22-0.177-0.345
		c0.845-2.813,1.312-5.789,1.312-8.875V183.307c0-17.072-13.892-30.961-30.964-30.961H32.583c-17.072,0-30.964,13.89-30.964,30.961
		v119.999v70.555c0,18.564,8.757,35.092,22.322,45.771v237.417c0,23.23,8.916,42.674,24.446,56.453
		c-14.749,11.215-24.446,31.478-24.446,55.158v63.647c0,8.759,7.099,15.856,15.856,15.856h239.143
		c8.76,0,15.858-7.098,15.858-15.856v-29.773h7.353l30.822,39.521c3.004,3.855,7.618,6.108,12.506,6.108h637.659
		c8.76,0,15.861-7.098,15.861-15.856V768.66C999,745.237,989.514,725.153,975.033,713.866z M33.336,373.86v-54.7h229.975
		c-2.839,45.29-40.587,81.263-86.579,81.263H59.898C45.253,400.424,33.336,388.509,33.336,373.86z M279.339,287.449H33.336v-35.839
		h372.378v35.839H279.339z M405.714,184.058v35.839H33.336v-35.839H405.714z M59.898,432.136h116.834
		c63.483,0,115.448-50.189,118.326-112.975h111.409c1.44,0,2.846-0.133,4.236-0.321l18.747,46.91l-63.571,34.549
		c-7.695,4.181-10.543,13.808-6.362,21.507c2.876,5.288,8.323,8.286,13.948,8.286c2.558,0,5.154-0.618,7.558-1.925l60.695-32.988
		c7.83,14.787,20.786,26.024,36.383,31.68l-42.164,54.192c-5.379,6.913-4.135,16.873,2.776,22.253
		c2.895,2.252,6.324,3.344,9.726,3.344c4.726,0,9.4-2.104,12.528-6.121l50.259-64.6l54.029,14.476l-31.711,77.771
		c-3.313,8.11,0.578,17.363,8.693,20.674c1.957,0.797,3.988,1.179,5.979,1.179c6.254,0,12.186-3.726,14.689-9.874l33.232-81.478
		l63.324,16.957l-21.598,72.89c-2.488,8.392,2.303,17.22,10.701,19.707c1.504,0.446,3.021,0.658,4.514,0.658
		c6.84,0,13.152-4.462,15.193-11.362l23.51-79.327c103.441,8.161,169.156,29.649,205.377,67.027
		c35.646,36.782,44.945,90.288,46.078,158.917H391.82c-2.425-7.433-4.938-14.782-7.619-21.89
		c-3.096-8.192-12.252-12.329-20.438-9.228c-8.192,3.094-12.326,12.245-9.233,20.438c1.32,3.486,2.566,7.093,3.822,10.68H114.969
		c-43.731,0-59.313-24.325-59.313-47.09V472.589c6.682-1.874,11.603-7.958,11.585-15.239c-0.017-7.253-4.933-13.291-11.585-15.166
		v-10.261C57.063,432.025,58.465,432.136,59.898,432.136z M353.224,816.451l-30.822-39.529c-3.004-3.854-7.617-6.106-12.505-6.106
		h-30.956c-8.759,0-15.855,7.103-15.855,15.861v29.774H55.656V768.66c0-19.333,10.342-32.803,19.622-32.803h39.691h265.22
		c0.016,0,0.034,0.004,0.051,0.004c0.02,0,0.04-0.004,0.058-0.004H947.66c7.857,0,16.441,9.666,18.904,24.343
		c-98.67-0.622-198.424-0.7-296.844-0.184c-8.756,0.045-15.82,7.185-15.775,15.938c0.047,8.732,7.135,15.778,15.852,15.778
		c0.029,0,0.063,0,0.09,0c98.605-0.521,198.551-0.441,297.396,0.189v24.528H353.224z"/>
	<path fill="#5C5051" d="M587.832,760.298c-32.354-0.843-66.318-0.848-98.221,0.003c-8.756,0.231-15.666,7.512-15.433,16.271
		c0.227,8.613,7.281,15.438,15.844,15.438c0.142,0,0.286-0.005,0.429-0.01c31.358-0.823,64.747-0.828,96.551,0.005
		c0.143,0,0.287,0.005,0.424,0.005c8.566,0,15.621-6.829,15.844-15.445C603.5,767.808,596.59,760.527,587.832,760.298z"/>
</g>
</svg>
