<?xml version="1.0" encoding="utf-8"?>
<!-- Generator: Adobe Illustrator 16.0.0, SVG Export Plug-In . SVG Version: 6.00 Build 0)  -->
<!DOCTYPE svg PUBLIC "-//W3C//DTD SVG 1.1//EN" "http://www.w3.org/Graphics/SVG/1.1/DTD/svg11.dtd">
<svg version="1.1" id="Layer_1" xmlns="http://www.w3.org/2000/svg" xmlns:xlink="http://www.w3.org/1999/xlink" x="0px" y="0px"
	 width="2500px" height="1500px" viewBox="-500 0 2500 1500" enable-background="new -500 0 2500 1500" xml:space="preserve">
<polygon fill="#96DE2A" points="546.613,550.149 300.606,550.149 300.606,514.315 672.986,514.315 672.986,550.149 "/>
<path fill="#96DE2A" d="M620.496,1079.15l-30.822-39.521c-3.004-3.854-7.616-6.105-12.505-6.105h-30.956
	c-8.756,0-15.857,7.096-15.857,15.854v29.773H322.928v-47.789c0-19.329,10.342-32.806,19.621-32.806h39.691h265.217
	c0.019,0,0.037,0.007,0.056,0.007s0.039-0.007,0.057-0.007h567.362c7.853,0,16.441,9.667,18.9,24.351
	c-98.666-0.621-198.418-0.699-296.846-0.186c-8.754,0.048-15.814,7.181-15.771,15.938c0.045,8.732,7.133,15.775,15.855,15.775
	c0.027,0,0.055,0,0.082,0c98.61-0.519,198.553-0.438,297.397,0.191v24.522H620.496V1079.15z"/>
<g>
	<path fill="#5C5051" d="M570.286,874.027c2.993,4.873,8.197,7.558,13.524,7.558c2.831,0,5.697-0.759,8.286-2.344
		c7.464-4.586,9.795-14.355,5.21-21.815c-6.234-10.149-12.94-20.006-19.926-29.291c-5.265-6.994-15.207-8.398-22.206-3.136
		c-6.997,5.269-8.4,15.206-3.135,22.207C558.429,855.694,564.568,864.721,570.286,874.027z"/>
	<path fill="#5C5051" d="M473.98,773.824c8.98,5.853,17.741,12.26,26.041,19.039c2.942,2.407,6.491,3.578,10.021,3.578
		c4.596,0,9.154-1.99,12.289-5.831c5.54-6.784,4.534-16.77-2.25-22.313c-9.172-7.487-18.852-14.564-28.775-21.042
		c-7.333-4.78-17.158-2.712-21.943,4.625C464.579,759.212,466.646,769.039,473.98,773.824z"/>
	<path fill="#5C5051" d="M375.262,731.542c10.544,2.557,21.013,5.643,31.114,9.174c1.731,0.604,3.496,0.891,5.229,0.891
		c6.553,0,12.688-4.096,14.972-10.634c2.887-8.268-1.474-17.309-9.743-20.199c-11.076-3.868-22.546-7.249-34.089-10.055
		c-8.51-2.067-17.086,3.16-19.152,11.67C361.528,720.899,366.75,729.474,375.262,731.542z"/>
	<path fill="#5C5051" d="M1224.033,962.866c-0.469-81.042-10.463-144.651-55.094-190.714
		c-45.802-47.266-123.982-71.484-253.369-78.453l-170.92-45.773c-0.393-0.105-0.789-0.196-1.185-0.271
		c-11.479-2.146-21.136-9.78-25.883-20.434l-32.288-80.803c-0.048-0.124-0.127-0.22-0.177-0.345
		c0.845-2.813,1.312-5.789,1.312-8.875V432.307c0-17.072-13.892-30.96-30.964-30.96H281.583c-17.072,0-30.964,13.89-30.964,30.96
		v119.999v70.556c0,18.563,8.757,35.092,22.322,45.771v237.417c0,23.23,8.916,42.674,24.446,56.453
		c-14.749,11.215-24.446,31.479-24.446,55.158v63.646c0,8.76,7.099,15.856,15.856,15.856H527.94c8.76,0,15.857-7.098,15.857-15.856
		v-29.772h7.354l30.821,39.521c3.005,3.855,7.618,6.108,12.507,6.108h637.658c8.761,0,15.861-7.098,15.861-15.855v-63.647
		C1248,994.237,1238.514,974.153,1224.033,962.866z M282.336,622.86v-54.7h229.975c-2.839,45.29-40.587,81.263-86.578,81.263
		H308.898C294.253,649.424,282.336,637.509,282.336,622.86z M528.339,536.449H282.336V500.61h372.378v35.839H528.339z
		 M654.714,433.058v35.84H282.336v-35.84H654.714z M308.898,681.136h116.834c63.482,0,115.447-50.188,118.325-112.975h111.409
		c1.44,0,2.846-0.133,4.236-0.321l18.747,46.91l-63.571,34.549c-7.695,4.182-10.543,13.809-6.362,21.507
		c2.876,5.288,8.323,8.286,13.948,8.286c2.559,0,5.154-0.618,7.559-1.925l60.694-32.988c7.83,14.787,20.786,26.024,36.383,31.681
		l-42.163,54.191c-5.38,6.913-4.136,16.873,2.775,22.253c2.896,2.252,6.324,3.345,9.727,3.345c4.726,0,9.399-2.104,12.527-6.121
		l50.259-64.601l54.029,14.477l-31.711,77.771c-3.313,8.11,0.578,17.363,8.693,20.675c1.957,0.797,3.987,1.179,5.979,1.179
		c6.254,0,12.187-3.727,14.689-9.874l33.231-81.479l63.324,16.957l-21.598,72.891c-2.488,8.392,2.303,17.22,10.701,19.707
		c1.504,0.445,3.021,0.658,4.514,0.658c6.84,0,13.152-4.463,15.193-11.362l23.51-79.327c103.44,8.161,169.156,29.649,205.377,67.027
		c35.646,36.781,44.944,90.288,46.078,158.917H640.82c-2.426-7.434-4.938-14.782-7.619-21.891
		c-3.096-8.191-12.252-12.329-20.438-9.228c-8.191,3.094-12.325,12.245-9.232,20.438c1.319,3.486,2.565,7.094,3.821,10.681H363.969
		c-43.73,0-59.313-24.325-59.313-47.091V721.589c6.682-1.874,11.603-7.958,11.585-15.239c-0.018-7.253-4.934-13.291-11.585-15.166
		v-10.261C306.063,681.025,307.465,681.136,308.898,681.136z M602.224,1065.451l-30.821-39.529
		c-3.004-3.854-7.617-6.105-12.506-6.105h-30.955c-8.76,0-15.855,7.103-15.855,15.86v29.774h-207.43v-47.791
		c0-19.333,10.342-32.803,19.622-32.803h39.69h265.221c0.016,0,0.033,0.004,0.051,0.004c0.02,0,0.04-0.004,0.058-0.004h567.361
		c7.856,0,16.44,9.666,18.904,24.343c-98.671-0.622-198.425-0.7-296.845-0.185c-8.756,0.046-15.819,7.186-15.774,15.938
		c0.047,8.732,7.135,15.778,15.852,15.778c0.029,0,0.063,0,0.09,0c98.605-0.521,198.552-0.441,297.396,0.188v24.528H602.224
		V1065.451z"/>
	<path fill="#5C5051" d="M836.832,1009.298c-32.354-0.843-66.318-0.848-98.221,0.003c-8.756,0.231-15.666,7.513-15.434,16.271
		c0.228,8.612,7.281,15.438,15.844,15.438c0.143,0,0.286-0.005,0.43-0.01c31.357-0.823,64.747-0.828,96.551,0.005
		c0.143,0,0.287,0.005,0.424,0.005c8.566,0,15.621-6.829,15.844-15.444C852.5,1016.808,845.59,1009.527,836.832,1009.298z"/>
</g>
</svg>
