<?xml version="1.0" encoding="utf-8"?>
<!-- Generator: Adobe Illustrator 16.0.0, SVG Export Plug-In . SVG Version: 6.00 Build 0)  -->
<!DOCTYPE svg PUBLIC "-//W3C//DTD SVG 1.1//EN" "http://www.w3.org/Graphics/SVG/1.1/DTD/svg11.dtd">
<svg version="1.1" id="Layer_1" xmlns="http://www.w3.org/2000/svg" xmlns:xlink="http://www.w3.org/1999/xlink" x="0px" y="0px"
	 width="1000px" height="1000px" viewBox="0 0 1000 1000" enable-background="new 0 0 1000 1000" xml:space="preserve">
<g>
	<path fill="#ACD36E" d="M783.921,747.604c0,6.793-5.526,12.318-12.323,12.318h-6.119h-82.944l0.077-0.005l-0.367-0.024
		c-6.655-0.156-12.028-5.596-12.028-12.289v-471.99c0-6.686,5.36-12.116,12.004-12.288c0.207-0.008,0.409-0.018,0.635-0.03h82.624
		h0.036h6.083c6.797,0,12.323,5.525,12.323,12.318V747.604z"/>
	<g>
		<path fill="#5B5050" d="M760.761,223.016C731.984,94.528,617.863,2.431,485.087,2.431c-155.811,0-282.568,126.76-282.568,282.568
			v428.657c0,155.81,126.757,282.568,282.568,282.568c132.78,0,246.917-92.098,275.69-220.584
			c19.841-2.725,35.188-19.739,35.188-40.319V263.334C795.966,242.751,780.61,225.729,760.761,223.016z M485.087,967.809
			c-140.141,0-254.151-114.011-254.151-254.152V284.999c0-140.139,114.01-254.149,254.151-254.149
			c117.124,0,218.142,79.669,246.407,191.745h-55.589C649.086,140.596,572.146,84.242,485.087,84.242l-1.976,0.011
			c-109.608,1.063-198.782,92.184-198.782,203.125v1.639c0,6.872,4.919,12.759,11.679,13.983
			c13.779,2.495,23.779,14.467,23.779,28.467v335.721c0,14.002-10,25.974-23.779,28.472c-6.76,1.221-11.679,7.109-11.679,13.981
			v4.015c0,53.549,20.905,103.938,58.864,141.895c37.958,37.959,88.35,58.859,141.894,58.859l1.978-0.003
			c85.222-0.83,161.133-57.168,188.263-138.347h56.166C703.229,888.141,602.211,967.809,485.087,967.809z M646.915,771.212
			c-24.48,67.544-88.478,114.08-160.122,114.774l-1.706,0.008c-45.955,0-89.208-17.948-121.801-50.536
			c-31.05-31.051-48.808-71.777-50.417-115.302c21.039-8.726,35.333-29.396,35.333-52.968V331.468
			c0-23.533-14.25-44.176-35.235-52.925c4.556-91.375,79.251-164.988,170.415-165.874l1.704-0.008
			c73.222,0,138.095,46.447,162.348,114.531c-13.057,6.794-22.013,20.431-22.013,36.142v471.987
			C625.423,750.83,634.135,764.334,646.915,771.212z M767.545,735.321c0,6.798-5.525,12.323-12.318,12.323h-6.125h-82.939
			l0.079-0.008l-0.371-0.021c-6.657-0.161-12.029-5.602-12.029-12.295V263.334c0-6.686,5.36-12.116,12.004-12.288
			c0.21-0.008,0.412-0.018,0.64-0.033h82.617h0.043h6.082c6.793,0,12.318,5.528,12.318,12.321V735.321z"/>
		<path fill="#5B5050" d="M710.694,630.229c-13.556,0-24.545,10.985-24.545,24.543c0,13.557,10.989,24.542,24.545,24.542
			c13.558,0,24.542-10.985,24.542-24.542C735.236,641.214,724.252,630.229,710.694,630.229z"/>
		<circle fill="#5B5050" cx="710.694" cy="343.886" r="24.544"/>
		<path fill="#5B5050" d="M287.845,603.839c0.013-7.846-6.338-14.222-14.184-14.234c-0.008,0-0.017,0-0.024,0
			c-7.837,0-14.201,6.348-14.209,14.188c-0.029,17.016-0.066,34.028-0.116,51.044c-0.021,7.849,6.318,14.229,14.167,14.255
			c0.012,0,0.029,0,0.041,0c7.828,0,14.188-6.34,14.209-14.172C287.778,637.897,287.816,620.87,287.845,603.839z"/>
		<path fill="#5B5050" d="M273.682,566.953L273.682,566.953c7.845,0,14.209-6.359,14.209-14.209
			c0.008-39.12-0.046-78.796-0.161-117.921c-0.021-7.833-6.381-14.168-14.209-14.168c-0.012,0-0.029,0-0.041,0
			c-7.85,0.022-14.192,6.402-14.167,14.251c0.116,39.095,0.169,78.741,0.162,117.837
			C259.469,560.591,265.833,566.953,273.682,566.953z"/>
		<path fill="#5B5050" d="M273.521,398.845c7.849,0,14.209-6.362,14.209-14.21V343.78c0-7.849-6.36-14.211-14.209-14.211
			s-14.208,6.362-14.208,14.211v40.855C259.312,392.483,265.671,398.845,273.521,398.845z"/>
	</g>
</g>
</svg>
