<?xml version="1.0" encoding="utf-8"?>
<!-- Generator: Adobe Illustrator 16.0.0, SVG Export Plug-In . SVG Version: 6.00 Build 0)  -->
<!DOCTYPE svg PUBLIC "-//W3C//DTD SVG 1.1//EN" "http://www.w3.org/Graphics/SVG/1.1/DTD/svg11.dtd">
<svg version="1.1" id="Layer_1" xmlns="http://www.w3.org/2000/svg" xmlns:xlink="http://www.w3.org/1999/xlink" x="0px" y="0px"
	 width="2500px" height="1500px" viewBox="0 0 2500 1500" enable-background="new 0 0 2500 1500" xml:space="preserve">
<g>
	<path fill="#96DE2A" d="M1491.63,521.095h-90.555c-6.065,0-11,4.935-11,11v176.332h112.555V532.095
		C1502.63,526.029,1497.695,521.095,1491.63,521.095z M1446.353,634.251c-13.273,0-24.033-10.76-24.033-24.033
		s10.76-24.034,24.033-24.034s24.033,10.761,24.033,24.034S1459.626,634.251,1446.353,634.251z"/>
	<path fill="#96DE2A" d="M1390.075,991.605c0,6.065,4.935,11,11,11h90.555c6.065,0,11-4.935,11-11v-36.179h-112.555V991.605z"/>
	<path fill="#5A5050" d="M985.677,640.427c-8.284,0-15-6.716-15-15v-79.802c0-8.284,6.716-15,15-15s15,6.716,15,15v79.802
		C1000.677,633.711,993.961,640.427,985.677,640.427z"/>
	<path fill="#5A5050" d="M985.677,789.761c-8.284,0-15-6.716-15-15V671.442c0-8.284,6.716-15,15-15s15,6.716,15,15v103.318
		C1000.677,783.045,993.961,789.761,985.677,789.761z"/>
	<path fill="#5A5050" d="M985.677,867.094c-8.284,0-15-6.716-15-15v-25.08c0-8.284,6.716-15,15-15s15,6.716,15,15v25.08
		C1000.677,860.378,993.961,867.094,985.677,867.094z"/>
	<path fill="#5A5050" d="M985.677,968.007c-8.284,0-15-6.716-15-15V902.01c0-8.284,6.716-15,15-15s15,6.716,15,15v50.997
		C1000.677,961.291,993.961,968.007,985.677,968.007z"/>
	<circle fill="#5A5050" cx="1431.353" cy="598.217" r="24.034"/>
	<path fill="#5A5050" d="M1433.537,805.172c-3.415,0-6.849-1.159-9.664-3.534c-6.332-5.342-7.135-14.805-1.794-21.138l16.841-19.965
		c5.341-6.331,14.804-7.137,21.138-1.794c6.332,5.342,7.135,14.805,1.794,21.138l-16.841,19.965
		C1442.044,803.36,1437.805,805.172,1433.537,805.172z"/>
	<path fill="#5A5050" d="M1348.678,811.163c-3.415,0-6.849-1.16-9.664-3.534c-6.332-5.342-7.135-14.806-1.794-21.138l21.896-25.956
		c5.342-6.331,14.805-7.135,21.138-1.794c6.332,5.342,7.135,14.806,1.794,21.138l-21.896,25.956
		C1357.185,809.352,1352.945,811.163,1348.678,811.163z"/>
	<path fill="#5A5050" d="M1360.595,890.948c-3.415,0-6.849-1.159-9.664-3.534c-6.332-5.342-7.136-14.805-1.794-21.138l42.398-50.265
		c5.342-6.331,14.805-7.137,21.138-1.794c6.332,5.342,7.136,14.805,1.794,21.138l-42.398,50.265
		C1369.102,889.137,1364.862,890.948,1360.595,890.948z"/>
	<path fill="#5A5050" d="M1443.261,890.948c-3.415,0-6.85-1.16-9.664-3.535c-6.332-5.342-7.135-14.805-1.793-21.137l10.377-12.301
		c5.342-6.332,14.806-7.136,21.137-1.793c6.332,5.342,7.135,14.805,1.793,21.137l-10.377,12.301
		C1451.767,889.138,1447.528,890.948,1443.261,890.948z"/>
	<path fill="#5A5050" d="M1525.649,696.427h-8.02V520.095c0-20.95-15.799-38.27-36.105-40.698
		c-13.202-58.791-45.519-112.197-91.891-151.437c-50.118-42.41-113.93-65.767-179.679-65.767
		c-74.339,0-144.228,28.949-196.793,81.514c-52.565,52.565-81.515,122.455-81.515,196.793v419
		c0,74.338,28.949,144.228,81.515,196.792c52.565,52.565,122.454,81.515,196.793,81.515c65.805,0,129.657-23.392,179.796-65.866
		c46.396-39.304,78.695-92.783,91.842-151.646c20.273-2.458,36.037-19.762,36.037-40.688v-36.179h8.02
		c23.547,0,42.703-18.611,42.703-41.488V737.915C1568.353,715.038,1549.196,696.427,1525.649,696.427z M1487.63,520.095v176.332
		h-112.555V520.095c0-6.065,4.935-11,11-11h90.555C1482.695,509.095,1487.63,514.029,1487.63,520.095z M1209.955,1207.807
		c-136.917,0-248.308-111.39-248.308-248.307v-419c0-136.917,111.391-248.307,248.308-248.307
		c114.513,0,212.992,77.584,240.66,186.901h-52.688c-26.329-80.805-102.036-136.297-187.972-136.297
		c-109.014,0-197.703,88.688-197.703,197.702v419c0,109.014,88.689,197.702,197.703,197.702c86.09,0,161.833-55.614,188.068-136.597
		h52.668C1423.132,1130.095,1324.617,1207.807,1209.955,1207.807z M1294.353,737.915v164.023c0,22.877,19.156,41.488,42.703,41.488
		h8.02v36.179c0,16.043,9.268,29.955,22.726,36.687c-23.675,65.994-86.58,110.91-157.846,110.91
		c-92.472,0-167.702-75.23-167.702-167.702v-419c0-92.472,75.23-167.702,167.702-167.702c71.135,0,134.005,44.813,157.755,110.656
		c-13.408,6.749-22.635,20.634-22.635,36.641v176.332h-8.02C1313.509,696.427,1294.353,715.038,1294.353,737.915z M1487.63,979.605
		c0,6.065-4.935,11-11,11h-90.555c-6.065,0-11-4.935-11-11v-36.179h112.555V979.605z M1525.649,913.427h-188.594
		c-7.005,0-12.703-5.153-12.703-11.488v-53.664l5.577-6.613c5.341-6.332,4.536-15.796-1.797-21.137
		c-1.168-0.985-2.444-1.759-3.78-2.329v-80.28c0-6.334,5.698-11.488,12.703-11.488h188.594c7.005,0,12.703,5.154,12.703,11.488
		v24.047c-6.316-4.771-15.324-3.831-20.487,2.289l-50.014,59.292c-5.341,6.333-4.538,15.796,1.794,21.138
		c2.815,2.375,6.249,3.534,9.664,3.534c4.268,0,8.507-1.812,11.474-5.328l47.569-56.395v37.105l-6.64,7.374
		c-5.544,6.156-5.047,15.641,1.109,21.184c1.65,1.486,3.542,2.523,5.53,3.148v46.635
		C1538.353,908.273,1532.654,913.427,1525.649,913.427z"/>
	<path fill="#5A5050" d="M1512.545,890.824c-3.414,0-6.848-1.159-9.662-3.533c-6.333-5.341-7.138-14.804-1.797-21.137l3.069-3.64
		c5.34-6.333,14.804-7.14,21.137-1.797c6.333,5.341,7.138,14.804,1.797,21.137l-3.069,3.64
		C1521.053,889.013,1516.813,890.824,1512.545,890.824z"/>
</g>
</svg>
