<?xml version="1.0" encoding="utf-8"?>
<!-- Generator: Adobe Illustrator 16.0.0, SVG Export Plug-In . SVG Version: 6.00 Build 0)  -->
<!DOCTYPE svg PUBLIC "-//W3C//DTD SVG 1.1//EN" "http://www.w3.org/Graphics/SVG/1.1/DTD/svg11.dtd">
<svg version="1.1" id="Layer_1" xmlns="http://www.w3.org/2000/svg" xmlns:xlink="http://www.w3.org/1999/xlink" x="0px" y="0px"
	 width="2500px" height="1500px" viewBox="-500 0 2500 1500" enable-background="new -500 0 2500 1500" xml:space="preserve">
<path fill="#96DE2A" d="M1033.921,997.604c0,6.793-5.526,12.317-12.323,12.317h-6.119h-82.943l0.077-0.005l-0.367-0.024
	c-6.655-0.155-12.028-5.596-12.028-12.288v-471.99c0-6.687,5.36-12.116,12.004-12.288c0.207-0.008,0.409-0.019,0.636-0.03h82.624
	h0.035h6.084c6.797,0,12.322,5.525,12.322,12.318L1033.921,997.604L1033.921,997.604z"/>
<g>
	<path fill="#5B5050" d="M1010.761,473.016c-28.775-128.487-142.896-220.583-275.673-220.583
		c-155.811,0-282.568,126.76-282.568,282.568v428.657c0,155.81,126.758,282.567,282.568,282.567
		c132.78,0,246.917-92.098,275.69-220.584c19.841-2.725,35.188-19.738,35.188-40.318V513.334
		C1045.966,492.751,1030.61,475.729,1010.761,473.016z M735.087,1217.809c-140.141,0-254.151-114.011-254.151-254.151V534.999
		c0-140.139,114.011-254.149,254.151-254.149c117.124,0,218.142,79.669,246.407,191.745h-55.589
		c-26.819-81.999-103.759-138.353-190.818-138.353l-1.976,0.011c-109.608,1.063-198.782,92.184-198.782,203.125v1.639
		c0,6.872,4.919,12.76,11.679,13.983c13.779,2.495,23.779,14.467,23.779,28.467v335.722c0,14.002-10,25.974-23.779,28.472
		c-6.76,1.221-11.679,7.108-11.679,13.98v4.016c0,53.549,20.905,103.938,58.864,141.895c37.958,37.959,88.35,58.859,141.894,58.859
		l1.979-0.003c85.222-0.83,161.133-57.168,188.263-138.348h56.166C953.229,1138.141,852.211,1217.809,735.087,1217.809z
		 M896.915,1021.212c-24.479,67.544-88.478,114.08-160.122,114.774l-1.706,0.008c-45.955,0-89.208-17.948-121.801-50.536
		c-31.05-31.051-48.809-71.777-50.417-115.302c21.039-8.727,35.333-29.396,35.333-52.968V581.468
		c0-23.533-14.25-44.176-35.235-52.925c4.557-91.375,79.251-164.988,170.415-165.874l1.704-0.008
		c73.222,0,138.095,46.447,162.348,114.531c-13.057,6.794-22.013,20.431-22.013,36.142v471.987
		C875.423,1000.83,884.135,1014.334,896.915,1021.212z M1017.545,985.321c0,6.798-5.525,12.322-12.318,12.322h-6.125h-82.938
		l0.079-0.008l-0.371-0.021c-6.657-0.161-12.029-5.603-12.029-12.295V513.334c0-6.686,5.36-12.116,12.004-12.288
		c0.21-0.008,0.412-0.018,0.641-0.033h82.617h0.043h6.082c6.793,0,12.317,5.528,12.317,12.321L1017.545,985.321L1017.545,985.321z"
		/>
	<path fill="#5B5050" d="M960.694,880.229c-13.557,0-24.546,10.984-24.546,24.543c0,13.557,10.989,24.541,24.546,24.541
		c13.558,0,24.542-10.984,24.542-24.541C985.236,891.214,974.252,880.229,960.694,880.229z"/>
	<circle fill="#5B5050" cx="960.694" cy="593.886" r="24.544"/>
	<path fill="#5B5050" d="M537.845,853.839c0.014-7.846-6.338-14.222-14.184-14.234c-0.008,0-0.018,0-0.024,0
		c-7.837,0-14.201,6.349-14.209,14.188c-0.028,17.016-0.065,34.028-0.115,51.044c-0.021,7.849,6.317,14.229,14.166,14.255
		c0.013,0,0.029,0,0.041,0c7.828,0,14.188-6.34,14.209-14.172C537.778,887.897,537.816,870.87,537.845,853.839z"/>
	<path fill="#5B5050" d="M523.682,816.953L523.682,816.953c7.846,0,14.209-6.359,14.209-14.209
		c0.009-39.12-0.046-78.796-0.16-117.921c-0.021-7.833-6.382-14.168-14.209-14.168c-0.013,0-0.029,0-0.041,0
		c-7.851,0.021-14.192,6.401-14.168,14.251c0.116,39.095,0.17,78.741,0.162,117.837
		C509.469,810.591,515.833,816.953,523.682,816.953z"/>
	<path fill="#5B5050" d="M523.521,648.845c7.849,0,14.209-6.361,14.209-14.21V593.78c0-7.85-6.36-14.211-14.209-14.211
		c-7.85,0-14.209,6.361-14.209,14.211v40.854C509.313,642.483,515.671,648.845,523.521,648.845z"/>
</g>
</svg>
