<?xml version="1.0" encoding="utf-8"?>
<!-- Generator: Adobe Illustrator 16.0.0, SVG Export Plug-In . SVG Version: 6.00 Build 0)  -->
<!DOCTYPE svg PUBLIC "-//W3C//DTD SVG 1.1//EN" "http://www.w3.org/Graphics/SVG/1.1/DTD/svg11.dtd">
<svg version="1.1" id="Layer_1" xmlns="http://www.w3.org/2000/svg" xmlns:xlink="http://www.w3.org/1999/xlink" x="0px" y="0px"
	 width="1000px" height="1000px" viewBox="0 0 1000 1000" enable-background="new 0 0 1000 1000" xml:space="preserve">
<polygon fill="#96DE2A" points="514.6,496.524 551.987,624.766 477.214,624.766 "/>
<path fill="#96DE2A" d="M585.125,299.981c-0.655-0.135-1.312-0.273-1.971-0.405c-4.816-0.974-9.671-1.838-14.557-2.608
	c-1.15-0.181-2.301-0.349-3.454-0.518c-4.536-0.667-9.101-1.253-13.694-1.744c-1.492-0.158-2.986-0.285-4.479-0.422
	c-4.134-0.387-8.279-0.711-12.445-0.951c-1.838-0.103-3.675-0.174-5.516-0.251c-3.723-0.154-7.462-0.25-11.221-0.284
	c-2.123-0.02-4.248-0.02-6.376,0c-3.753,0.034-7.496,0.129-11.22,0.284c-1.838,0.077-3.672,0.148-5.51,0.251
	c-4.17,0.24-8.316,0.564-12.447,0.951c-1.495,0.137-2.99,0.265-4.482,0.422c-4.592,0.491-9.155,1.077-13.691,1.746
	c-1.152,0.167-2.305,0.335-3.454,0.516c-4.889,0.77-9.743,1.634-14.56,2.608c-0.655,0.132-1.311,0.27-1.966,0.405
	C287.417,332.628,169.35,471.759,169.35,637.969c0,190.371,154.878,345.252,345.25,345.252
	c190.378,0,345.257-154.881,345.257-345.252C859.856,471.759,741.79,332.629,585.125,299.981z M514.6,942.805
	c-168.085,0-304.835-136.747-304.835-304.836c0-168.086,136.75-304.837,304.835-304.837c168.093,0,304.841,136.751,304.841,304.837
	C819.44,806.058,682.692,942.805,514.6,942.805z"/>
<g>
	<path fill="#5B5050" d="M590.255,266.156v-52.404c0-24.738-15.077-46.019-36.528-55.136c20.944-16.266,34.505-41.617,34.505-70.13
		c0-48.987-39.857-88.842-88.841-88.842c-48.987,0-88.841,39.855-88.841,88.842c0,28.513,13.557,53.864,34.503,70.13
		c-21.452,9.117-36.532,30.397-36.532,55.136v52.404c-161.15,40.648-280.791,186.809-280.791,360.401
		c0,204.935,166.726,371.662,371.661,371.662c204.933,0,371.656-166.728,371.656-371.662
		C871.046,452.964,751.408,306.804,590.255,266.156z M499.39,26.051c34.424,0,62.432,28.008,62.432,62.435
		c0,34.426-28.008,62.432-62.432,62.432c-34.427,0-62.435-28.006-62.435-62.432C436.956,54.059,464.963,26.051,499.39,26.051z
		 M434.927,260.499v-46.747c0-18.457,15.013-33.47,33.47-33.47h61.985c18.452,0,33.469,15.014,33.469,33.47v46.747
		c-0.258-0.045-0.518-0.075-0.775-0.118c-4.932-0.856-9.886-1.617-14.879-2.274c-0.16-0.021-0.317-0.045-0.479-0.067
		c-1.3-0.168-2.604-0.318-3.911-0.476v-46.56c0-7.291-5.909-13.204-13.202-13.204s-13.206,5.914-13.206,13.204v44.34
		c-0.33-0.017-0.661-0.023-0.99-0.039c-0.725-0.033-1.449-0.053-2.17-0.083c-4.932-0.195-9.875-0.321-14.849-0.321
		c-4.978,0-9.922,0.126-14.85,0.321c-0.725,0.03-1.445,0.05-2.171,0.083c-0.329,0.016-0.663,0.022-0.993,0.039v-44.34
		c0-7.291-5.909-13.204-13.202-13.204c-7.294,0-13.205,5.914-13.205,13.204v46.56c-1.305,0.157-2.611,0.307-3.911,0.476
		c-0.161,0.021-0.319,0.046-0.479,0.067c-4.991,0.658-9.948,1.418-14.876,2.274C435.446,260.424,435.183,260.454,434.927,260.499z
		 M499.39,971.813c-190.375,0-345.253-154.882-345.253-345.257c0-166.207,118.066-305.339,274.731-337.985
		c0.656-0.135,1.311-0.274,1.967-0.407c4.815-0.974,9.672-1.836,14.558-2.608c1.15-0.179,2.302-0.348,3.454-0.514
		c4.537-0.67,9.101-1.257,13.691-1.748c1.492-0.158,2.988-0.284,4.483-0.424c4.129-0.385,8.276-0.709,12.449-0.949
		c1.835-0.103,3.671-0.173,5.507-0.251c3.726-0.153,7.467-0.248,11.221-0.284c2.126-0.019,4.252-0.019,6.379,0
		c3.754,0.036,7.496,0.131,11.221,0.284c1.836,0.078,3.672,0.148,5.51,0.251c4.172,0.24,8.316,0.564,12.446,0.949
		c1.496,0.141,2.991,0.267,4.483,0.424c4.591,0.491,9.153,1.077,13.692,1.744c1.15,0.17,2.306,0.338,3.456,0.518
		c4.886,0.771,9.74,1.634,14.552,2.608c0.659,0.132,1.315,0.271,1.971,0.407C726.574,321.22,844.641,460.35,844.641,626.557
		C844.641,816.932,689.764,971.813,499.39,971.813z"/>
	<path fill="#5B5050" d="M499.39,321.722c-168.088,0-304.839,136.748-304.839,304.834c0,168.093,136.751,304.841,304.839,304.841
		c168.086,0,304.834-136.748,304.834-304.841C804.225,458.47,667.477,321.722,499.39,321.722z M512.591,904.655v-42.081
		c0-7.293-5.91-13.206-13.201-13.206c-7.294,0-13.205,5.913-13.205,13.206v42.081C342.899,897.93,227.626,782.402,221.274,639.02
		h41.359c7.292,0,13.203-5.909,13.203-13.203c0-7.292-5.91-13.202-13.203-13.202h-41.321
		c7.075-142.699,122.08-257.449,264.873-264.15v40.594c0,7.293,5.911,13.205,13.205,13.205c7.291,0,13.201-5.911,13.201-13.205
		v-40.594c142.796,6.701,257.803,121.451,264.876,264.15h-41.321c-7.292,0-13.207,5.91-13.207,13.202
		c0,7.294,5.915,13.203,13.207,13.203h41.36C771.15,782.402,655.881,897.93,512.591,904.655z"/>
	<path fill="#5B5050" d="M566.77,621.89l-54.704-187.646c-1.645-5.635-6.807-9.509-12.675-9.509c-5.869,0-11.035,3.874-12.678,9.509
		l-54.986,188.62c-0.065,0.218-0.059,0.444-0.114,0.664c-0.12,0.51-0.2,1.016-0.259,1.533c-0.058,0.502-0.098,0.996-0.098,1.495
		c0,0.507,0.041,0.998,0.098,1.495c0.059,0.522,0.139,1.028,0.259,1.534c0.055,0.223,0.048,0.448,0.114,0.667l54.986,188.623
		c1.643,5.634,6.809,9.51,12.678,9.51c5.869,0,11.031-3.876,12.675-9.51l54.987-188.623c0.02-0.054,0.012-0.11,0.027-0.169
		c0.241-0.858,0.391-1.749,0.451-2.676c0.008-0.084,0.023-0.174,0.027-0.261c0.012-0.199,0.058-0.388,0.058-0.591
		C567.616,624.915,567.316,623.344,566.77,621.89z M499.39,485.114l37.384,128.245h-74.771L499.39,485.114z M499.39,768.006
		l-37.387-128.242h74.771L499.39,768.006z"/>
</g>
</svg>
