<?xml version="1.0" encoding="utf-8"?>
<!-- Generator: Adobe Illustrator 16.0.0, SVG Export Plug-In . SVG Version: 6.00 Build 0)  -->
<!DOCTYPE svg PUBLIC "-//W3C//DTD SVG 1.1//EN" "http://www.w3.org/Graphics/SVG/1.1/DTD/svg11.dtd">
<svg version="1.1" id="Layer_1" xmlns="http://www.w3.org/2000/svg" xmlns:xlink="http://www.w3.org/1999/xlink" x="0px" y="0px"
	 width="2500px" height="1500px" viewBox="-500 0 2500 1500" enable-background="new -500 0 2500 1500" xml:space="preserve">
<polygon fill="#96DE2A" points="767.6,747.524 804.987,875.766 730.214,875.766 "/>
<path fill="#96DE2A" d="M838.125,550.981c-0.655-0.136-1.313-0.273-1.971-0.405c-4.816-0.975-9.672-1.838-14.558-2.608
	c-1.149-0.181-2.301-0.349-3.454-0.518c-4.535-0.667-9.101-1.253-13.693-1.744c-1.492-0.158-2.986-0.285-4.479-0.422
	c-4.134-0.387-8.278-0.711-12.444-0.951c-1.839-0.104-3.676-0.174-5.517-0.251c-3.723-0.154-7.462-0.25-11.221-0.284
	c-2.123-0.02-4.248-0.02-6.376,0c-3.753,0.034-7.496,0.129-11.22,0.284c-1.839,0.077-3.673,0.148-5.512,0.251
	c-4.17,0.24-8.315,0.564-12.446,0.951c-1.495,0.137-2.99,0.265-4.482,0.422c-4.592,0.491-9.155,1.077-13.691,1.746
	c-1.151,0.167-2.305,0.335-3.453,0.516c-4.89,0.771-9.743,1.634-14.561,2.608c-0.655,0.132-1.311,0.27-1.966,0.405
	C540.417,583.628,422.35,722.759,422.35,888.969c0,190.371,154.879,345.252,345.25,345.252
	c190.379,0,345.258-154.881,345.258-345.252C1112.855,722.759,994.79,583.629,838.125,550.981z M767.6,1193.805
	c-168.085,0-304.835-136.747-304.835-304.836c0-168.086,136.75-304.837,304.835-304.837c168.094,0,304.842,136.751,304.842,304.837
	C1072.439,1057.058,935.692,1193.805,767.6,1193.805z"/>
<g>
	<path fill="#5B5050" d="M843.255,517.156v-52.404c0-24.738-15.077-46.019-36.528-55.136c20.944-16.266,34.506-41.617,34.506-70.13
		c0-48.987-39.857-88.842-88.842-88.842c-48.986,0-88.842,39.855-88.842,88.842c0,28.513,13.558,53.864,34.503,70.13
		c-21.452,9.117-36.532,30.396-36.532,55.136v52.404c-161.149,40.647-280.791,186.809-280.791,360.4
		c0,204.936,166.727,371.662,371.661,371.662c204.934,0,371.655-166.728,371.655-371.662
		C1124.046,703.964,1004.408,557.804,843.255,517.156z M752.391,277.051c34.425,0,62.433,28.008,62.433,62.435
		c0,34.426-28.008,62.432-62.433,62.432c-34.428,0-62.435-28.006-62.435-62.432C689.956,305.059,717.963,277.051,752.391,277.051z
		 M687.927,511.499v-46.747c0-18.457,15.014-33.47,33.47-33.47h61.985c18.452,0,33.469,15.014,33.469,33.47v46.747
		c-0.258-0.045-0.518-0.075-0.774-0.118c-4.933-0.855-9.887-1.617-14.879-2.273c-0.16-0.021-0.317-0.046-0.479-0.067
		c-1.3-0.168-2.604-0.318-3.911-0.476v-46.561c0-7.291-5.909-13.204-13.202-13.204s-13.206,5.914-13.206,13.204v44.34
		c-0.33-0.017-0.66-0.022-0.989-0.039c-0.726-0.032-1.449-0.053-2.17-0.083c-4.933-0.194-9.875-0.32-14.85-0.32
		c-4.978,0-9.922,0.126-14.85,0.32c-0.726,0.03-1.445,0.051-2.171,0.083c-0.329,0.017-0.663,0.022-0.993,0.039v-44.34
		c0-7.291-5.909-13.204-13.202-13.204c-7.294,0-13.205,5.914-13.205,13.204v46.561c-1.305,0.156-2.611,0.307-3.911,0.476
		c-0.161,0.021-0.318,0.046-0.479,0.067c-4.991,0.657-9.948,1.418-14.876,2.273C688.446,511.424,688.183,511.454,687.927,511.499z
		 M752.391,1222.813c-190.375,0-345.254-154.883-345.254-345.258c0-166.207,118.066-305.339,274.731-337.984
		c0.656-0.135,1.311-0.274,1.967-0.407c4.815-0.974,9.672-1.836,14.558-2.608c1.15-0.179,2.303-0.348,3.454-0.514
		c4.537-0.67,9.102-1.257,13.691-1.748c1.492-0.158,2.987-0.284,4.482-0.424c4.13-0.385,8.276-0.709,12.449-0.949
		c1.835-0.103,3.671-0.173,5.507-0.251c3.727-0.152,7.467-0.248,11.222-0.284c2.126-0.019,4.252-0.019,6.379,0
		c3.754,0.036,7.496,0.132,11.221,0.284c1.836,0.078,3.672,0.148,5.51,0.251c4.172,0.24,8.316,0.564,12.446,0.949
		c1.496,0.141,2.991,0.267,4.483,0.424c4.591,0.491,9.152,1.077,13.691,1.744c1.15,0.17,2.307,0.338,3.456,0.518
		c4.886,0.771,9.74,1.635,14.552,2.608c0.659,0.132,1.315,0.271,1.972,0.407c156.665,32.647,274.73,171.777,274.73,337.984
		C1097.641,1067.932,942.764,1222.813,752.391,1222.813z"/>
	<path fill="#5B5050" d="M752.391,572.722c-168.089,0-304.84,136.748-304.84,304.834c0,168.094,136.751,304.842,304.84,304.842
		c168.086,0,304.834-136.748,304.834-304.842C1057.225,709.47,920.477,572.722,752.391,572.722z M765.591,1155.655v-42.081
		c0-7.293-5.91-13.206-13.2-13.206c-7.294,0-13.206,5.913-13.206,13.206v42.081c-143.285-6.727-258.559-122.253-264.91-265.637
		h41.358c7.292,0,13.203-5.908,13.203-13.202c0-7.292-5.91-13.202-13.203-13.202h-41.32
		c7.074-142.699,122.079-257.449,264.872-264.15v40.594c0,7.293,5.911,13.205,13.206,13.205c7.29,0,13.2-5.911,13.2-13.205v-40.594
		c142.796,6.701,257.804,121.451,264.876,264.15h-41.32c-7.293,0-13.207,5.91-13.207,13.202c0,7.294,5.914,13.202,13.207,13.202
		h41.359C1024.15,1033.402,908.881,1148.93,765.591,1155.655z"/>
	<path fill="#5B5050" d="M819.77,872.89l-54.703-187.646c-1.646-5.635-6.808-9.509-12.676-9.509c-5.869,0-11.035,3.874-12.679,9.509
		l-54.986,188.62c-0.064,0.218-0.059,0.443-0.113,0.664c-0.12,0.51-0.2,1.016-0.259,1.533c-0.059,0.502-0.099,0.995-0.099,1.494
		c0,0.508,0.041,0.998,0.099,1.495c0.059,0.522,0.139,1.028,0.259,1.534c0.055,0.223,0.048,0.448,0.113,0.667l54.986,188.623
		c1.644,5.634,6.81,9.51,12.679,9.51c5.868,0,11.03-3.876,12.676-9.51l54.986-188.623c0.021-0.054,0.013-0.11,0.027-0.169
		c0.241-0.858,0.391-1.749,0.451-2.676c0.008-0.084,0.022-0.174,0.026-0.262c0.013-0.198,0.059-0.388,0.059-0.591
		C820.616,875.915,820.316,874.344,819.77,872.89z M752.391,736.114l37.385,128.245h-74.771L752.391,736.114z M752.391,1019.006
		l-37.388-128.242h74.771L752.391,1019.006z"/>
</g>
</svg>
