<?xml version="1.0" encoding="utf-8"?>
<!-- Generator: Adobe Illustrator 16.0.0, SVG Export Plug-In . SVG Version: 6.00 Build 0)  -->
<!DOCTYPE svg PUBLIC "-//W3C//DTD SVG 1.1//EN" "http://www.w3.org/Graphics/SVG/1.1/DTD/svg11.dtd">
<svg version="1.1" id="Layer_1" xmlns="http://www.w3.org/2000/svg" xmlns:xlink="http://www.w3.org/1999/xlink" x="0px" y="0px"
	 width="1000px" height="1000px" viewBox="0 0 1000 1000" enable-background="new 0 0 1000 1000" xml:space="preserve">
<path fill="#96DE2A" d="M985.405,691.781c-0.028-0.302-0.044-0.603-0.075-0.899c-0.284-2.669-0.688-5.299-1.21-7.892
	c-0.042-0.21-0.085-0.43-0.132-0.64c-4.039-19.337-14.59-36.306-29.249-48.512c-0.204-0.168-0.414-0.336-0.621-0.504
	c-7.545-6.167-16.188-11.006-25.538-14.339c-1.238-0.446-2.467-0.931-3.721-1.316c-1.525-0.465-3.095-0.816-4.655-1.199
	c-1.155-0.284-2.301-0.623-3.467-0.858c-1.831-0.365-3.703-0.601-5.573-0.849c-0.937-0.127-1.861-0.317-2.803-0.411
	c-2.826-0.281-5.691-0.434-8.587-0.434h-90.29c-0.005,0-0.013,0-0.021,0s-0.016,0-0.023,0H555.334H131.465
	c-47.446,0-86.045,38.599-86.045,86.045c0,11.767,2.387,22.983,6.682,33.211h730.486c7.424,0,13.442,6.018,13.442,13.441
	s-6.019,13.438-13.442,13.438H69.993c15.632,15.991,37.397,25.952,61.472,25.952h768.31c35.429,0,65.908-21.53,79.084-52.184
	c0.118-0.286,0.235-0.571,0.356-0.853c2.048-4.908,3.656-10.038,4.766-15.354c0.039-0.184,0.086-0.367,0.124-0.555
	c0.522-2.584,0.921-5.219,1.203-7.885c0.038-0.365,0.069-0.737,0.101-1.107c0.25-2.671,0.414-5.371,0.414-8.106
	C985.822,697.206,985.658,694.481,985.405,691.781z M901.972,721.354c-11.791,0-21.381-9.589-21.381-21.38
	c0-11.792,9.59-21.378,21.381-21.378c11.792,0,21.378,9.586,21.378,21.378C923.35,711.765,913.764,721.354,901.972,721.354z"/>
<g>
	<path fill="#5B5050" d="M886.487,640.103c-26.609,0-48.261,21.646-48.261,48.258c0,26.612,21.651,48.259,48.261,48.259
		c26.608,0,48.259-21.646,48.259-48.259C934.746,661.749,913.096,640.103,886.487,640.103z M886.487,709.743
		c-11.79,0-21.38-9.594-21.38-21.383c0-11.791,9.59-21.38,21.38-21.38c11.789,0,21.383,9.589,21.383,21.38
		C907.87,700.149,898.276,709.743,886.487,709.743z"/>
	<path fill="#5B5050" d="M952.381,598.332c-0.021-0.016-0.039-0.02-0.063-0.031c-7.498-5.683-15.727-10.452-24.52-14.137
		l-728.77-408.153c-3.897-2.184-8.625-2.287-12.613-0.277c-3.989,2.01-6.721,5.87-7.285,10.302
		c-15.064,118.051,41.545,233.216,144.295,293.438l166.252,95.962h-373.7c-62.266,0-112.925,50.655-112.925,112.924
		c0,18.665,4.58,36.268,12.632,51.795c0.098,0.238,0.236,0.453,0.348,0.679c18.928,35.904,56.614,60.452,99.945,60.452h768.308
		c42.855,0,80.209-24.001,99.337-59.266c0.778-1.257,1.543-2.521,2.28-3.832C1012.832,690.243,998.109,628.808,952.381,598.332z
		 M336.942,456.242c-66.469-38.957-111.675-103.26-127.282-175.805c12.776,7.369,25.979,14.851,40.176,21.906
		c1.922,0.956,3.961,1.407,5.97,1.407c4.941,0,9.698-2.734,12.046-7.461c3.302-6.646,0.593-14.712-6.055-18.015
		c-15.758-7.832-29.935-16.033-44.943-24.716c-3.493-2.02-6.999-4.047-10.541-6.083c-0.562-0.32-1.147-0.539-1.731-0.771
		c-1.044-12.244-1.257-24.64-0.601-37.113l653.227,365.846h-59.796c-78.038-42.427-156.998-86.202-233.397-128.56
		c-49.632-27.518-100.949-55.974-151.598-83.825c-6.506-3.573-14.675-1.203-18.252,5.301c-3.578,6.504-1.204,14.675,5.299,18.252
		c50.608,27.829,101.908,56.271,151.522,83.78c62.349,34.57,126.406,70.08,190.309,105.052H543.449L336.942,456.242z
		 M884.287,774.405H115.979c-24.075,0-45.84-9.965-61.472-25.951h712.597c7.419,0,13.438-6.02,13.438-13.443
		c0-7.423-6.02-13.438-13.438-13.438H36.616c-4.295-10.227-6.682-21.444-6.682-33.213c0-47.445,38.6-86.046,86.046-86.046h423.866
		h254.107c0.008,0,0.016,0,0.023,0s0.016,0,0.023,0h90.287c2.9,0,5.761,0.155,8.587,0.436c0.944,0.095,1.865,0.281,2.803,0.407
		c1.873,0.249,3.747,0.483,5.573,0.854c1.171,0.235,2.312,0.574,3.47,0.855c1.558,0.383,3.13,0.733,4.655,1.203
		c1.259,0.382,2.482,0.869,3.724,1.311c9.349,3.337,17.987,8.173,25.535,14.34c0.202,0.168,0.414,0.336,0.621,0.507
		c14.656,12.202,25.21,29.173,29.254,48.508c0.039,0.215,0.086,0.43,0.124,0.64c0.523,2.593,0.929,5.224,1.211,7.893
		c0.03,0.297,0.046,0.602,0.077,0.898c0.259,2.7,0.414,5.429,0.414,8.195c0,2.736-0.16,5.434-0.414,8.107
		c-0.031,0.371-0.059,0.738-0.098,1.105c-0.285,2.669-0.683,5.3-1.206,7.883c-0.038,0.188-0.082,0.375-0.121,0.559
		c-1.112,5.312-2.72,10.441-4.766,15.352c-0.116,0.28-0.238,0.569-0.359,0.851C950.195,752.871,919.719,774.405,884.287,774.405z"/>
	<path fill="#5B5050" d="M360.394,333.702c-15.162-8.611-30.175-17.189-44.622-25.499c-6.436-3.702-14.65-1.485-18.352,4.949
		c-3.7,6.435-1.482,14.65,4.949,18.351c14.49,8.335,29.546,16.937,44.75,25.572c2.097,1.19,4.375,1.754,6.626,1.754
		c4.679,0,9.224-2.447,11.698-6.805C369.109,345.571,366.849,337.367,360.394,333.702z"/>
</g>
</svg>
