<?xml version="1.0" encoding="utf-8"?>
<!-- Generator: Adobe Illustrator 16.0.0, SVG Export Plug-In . SVG Version: 6.00 Build 0)  -->
<!DOCTYPE svg PUBLIC "-//W3C//DTD SVG 1.1//EN" "http://www.w3.org/Graphics/SVG/1.1/DTD/svg11.dtd">
<svg version="1.1" id="Layer_1" xmlns="http://www.w3.org/2000/svg" xmlns:xlink="http://www.w3.org/1999/xlink" x="0px" y="0px"
	 width="2500px" height="1500px" viewBox="-500 0 2500 1500" enable-background="new -500 0 2500 1500" xml:space="preserve">
<path fill="#96DE2A" d="M1229.405,953.781c-0.028-0.302-0.044-0.604-0.075-0.899c-0.284-2.669-0.688-5.299-1.21-7.892
	c-0.042-0.21-0.085-0.431-0.132-0.641c-4.039-19.337-14.59-36.306-29.249-48.512c-0.204-0.168-0.414-0.336-0.621-0.504
	c-7.545-6.167-16.188-11.006-25.538-14.339c-1.238-0.446-2.467-0.932-3.721-1.316c-1.525-0.465-3.095-0.815-4.655-1.199
	c-1.155-0.283-2.301-0.622-3.467-0.857c-1.831-0.365-3.703-0.602-5.573-0.849c-0.937-0.128-1.861-0.317-2.803-0.411
	c-2.826-0.281-5.691-0.435-8.587-0.435h-90.29c-0.005,0-0.014,0-0.021,0s-0.016,0-0.022,0H799.334H375.465
	c-47.446,0-86.045,38.6-86.045,86.045c0,11.768,2.387,22.983,6.682,33.211h730.486c7.424,0,13.442,6.019,13.442,13.441
	s-6.02,13.438-13.442,13.438H313.993c15.632,15.991,37.396,25.952,61.472,25.952h768.311c35.429,0,65.907-21.529,79.084-52.184
	c0.117-0.286,0.234-0.571,0.355-0.854c2.048-4.908,3.656-10.038,4.766-15.354c0.039-0.185,0.087-0.367,0.125-0.555
	c0.521-2.584,0.921-5.22,1.202-7.886c0.038-0.364,0.069-0.736,0.102-1.106c0.25-2.671,0.414-5.371,0.414-8.106
	C1229.822,959.206,1229.658,956.481,1229.405,953.781z M1145.972,983.354c-11.791,0-21.381-9.59-21.381-21.381
	c0-11.792,9.59-21.378,21.381-21.378c11.792,0,21.378,9.586,21.378,21.378C1167.35,973.765,1157.764,983.354,1145.972,983.354z"/>
<g>
	<path fill="#5B5050" d="M1130.487,902.103c-26.609,0-48.261,21.646-48.261,48.259c0,26.611,21.65,48.259,48.261,48.259
		c26.607,0,48.259-21.646,48.259-48.259S1157.096,902.103,1130.487,902.103z M1130.487,971.743c-11.79,0-21.38-9.594-21.38-21.383
		c0-11.791,9.59-21.381,21.38-21.381c11.789,0,21.383,9.59,21.383,21.381C1151.87,962.149,1142.276,971.743,1130.487,971.743z"/>
	<path fill="#5B5050" d="M1196.381,860.332c-0.021-0.016-0.039-0.021-0.063-0.031c-7.498-5.683-15.728-10.452-24.521-14.137
		l-728.77-408.153c-3.897-2.184-8.625-2.287-12.613-0.276c-3.989,2.01-6.721,5.869-7.285,10.302
		c-15.063,118.051,41.545,233.216,144.295,293.438l166.252,95.962h-373.7c-62.266,0-112.925,50.655-112.925,112.925
		c0,18.664,4.58,36.268,12.632,51.795c0.098,0.237,0.236,0.452,0.348,0.679c18.928,35.904,56.614,60.452,99.945,60.452h768.309
		c42.854,0,80.209-24.001,99.337-59.267c0.778-1.257,1.543-2.521,2.28-3.832C1256.832,952.243,1242.109,890.808,1196.381,860.332z
		 M580.942,718.242c-66.47-38.957-111.676-103.26-127.282-175.806c12.775,7.369,25.979,14.852,40.176,21.906
		c1.922,0.956,3.961,1.407,5.97,1.407c4.941,0,9.698-2.734,12.046-7.461c3.303-6.646,0.594-14.712-6.055-18.015
		c-15.758-7.832-29.935-16.033-44.943-24.717c-3.492-2.02-6.998-4.047-10.54-6.083c-0.563-0.319-1.147-0.539-1.731-0.771
		c-1.044-12.244-1.257-24.641-0.601-37.113l653.227,365.846h-59.796c-78.038-42.427-156.998-86.201-233.397-128.56
		c-49.632-27.518-100.948-55.974-151.598-83.825c-6.506-3.572-14.675-1.203-18.252,5.301c-3.578,6.505-1.204,14.676,5.299,18.253
		c50.608,27.828,101.908,56.271,151.522,83.779c62.349,34.57,126.405,70.08,190.309,105.052H787.449L580.942,718.242z
		 M1128.287,1036.405H359.979c-24.074,0-45.84-9.965-61.472-25.951h712.597c7.42,0,13.438-6.021,13.438-13.443
		s-6.021-13.438-13.438-13.438H280.616c-4.295-10.228-6.682-21.444-6.682-33.213c0-47.445,38.6-86.046,86.046-86.046h423.865
		h254.107c0.008,0,0.016,0,0.022,0s0.017,0,0.023,0h90.287c2.899,0,5.761,0.154,8.587,0.436c0.943,0.095,1.865,0.281,2.803,0.407
		c1.873,0.249,3.747,0.482,5.573,0.854c1.171,0.235,2.312,0.574,3.47,0.855c1.558,0.383,3.13,0.732,4.655,1.203
		c1.259,0.382,2.481,0.869,3.724,1.311c9.35,3.337,17.987,8.173,25.535,14.34c0.202,0.168,0.414,0.336,0.621,0.507
		c14.656,12.202,25.21,29.174,29.254,48.509c0.039,0.215,0.086,0.43,0.124,0.64c0.522,2.593,0.929,5.224,1.211,7.893
		c0.03,0.298,0.046,0.603,0.077,0.898c0.259,2.7,0.414,5.429,0.414,8.195c0,2.735-0.16,5.434-0.414,8.106
		c-0.031,0.371-0.059,0.738-0.098,1.105c-0.285,2.669-0.684,5.3-1.206,7.883c-0.038,0.188-0.082,0.375-0.121,0.559
		c-1.112,5.313-2.72,10.441-4.767,15.353c-0.115,0.28-0.237,0.568-0.358,0.851
		C1194.195,1014.871,1163.719,1036.405,1128.287,1036.405z"/>
	<path fill="#5B5050" d="M604.394,595.702c-15.161-8.611-30.175-17.189-44.622-25.499c-6.436-3.702-14.649-1.485-18.352,4.949
		c-3.7,6.435-1.482,14.649,4.949,18.351c14.49,8.335,29.546,16.938,44.75,25.572c2.097,1.189,4.375,1.754,6.626,1.754
		c4.679,0,9.224-2.447,11.698-6.805C613.109,607.571,610.849,599.367,604.394,595.702z"/>
</g>
</svg>
