<?xml version="1.0" encoding="utf-8"?>
<!-- Generator: Adobe Illustrator 16.0.0, SVG Export Plug-In . SVG Version: 6.00 Build 0)  -->
<!DOCTYPE svg PUBLIC "-//W3C//DTD SVG 1.1//EN" "http://www.w3.org/Graphics/SVG/1.1/DTD/svg11.dtd">
<svg version="1.1" id="Layer_1" xmlns="http://www.w3.org/2000/svg" xmlns:xlink="http://www.w3.org/1999/xlink" x="0px" y="0px"
	 width="1000px" height="1000px" viewBox="0 0 1000 1000" enable-background="new 0 0 1000 1000" xml:space="preserve">
<path fill="#96DE2A" d="M675.102,45.904c-121.374,0-220.12,98.746-220.12,220.12c0,50.523,40.063,147.548,115.862,280.59
	c41.564,72.957,83.548,138.403,104.254,170.015c18.494-28.255,53.981-83.552,91.155-147.279c0.237-0.409,0.478-0.817,0.715-1.229
	c2.266-3.889,4.542-7.826,6.815-11.771c1.497-2.608,2.994-5.219,4.494-7.842c0.564-0.983,1.129-1.977,1.69-2.967
	c70.658-124.159,110.11-216.851,114.785-269.476c0.297-3.48,0.47-6.841,0.47-10.041C895.223,144.65,796.48,45.904,675.102,45.904z
	 M672.168,378.903c-50.52,0-91.621-41.1-91.621-91.619c0-50.517,41.102-91.616,91.621-91.616c50.521,0,91.615,41.1,91.615,91.616
	C763.783,337.803,722.689,378.903,672.168,378.903z"/>
<g>
	<path fill="#5C5051" d="M985.037,189.504c-4.731-2.907-10.633-3.152-15.589-0.646l-62.726,31.731
		C891.108,96.468,784.971,0.119,656.687,0.119c-128.733,0-235.17,97.015-250.207,221.761l-66.426-33.067
		c-0.134-0.068-0.282-0.093-0.416-0.156c-0.577-0.27-1.181-0.469-1.788-0.668c-0.423-0.138-0.841-0.293-1.268-0.393
		c-0.581-0.137-1.179-0.2-1.777-0.269c-0.498-0.058-0.983-0.137-1.481-0.151c-0.134-0.002-0.26-0.04-0.394-0.04
		c-0.465,0-0.906,0.101-1.366,0.141c-0.497,0.041-0.989,0.059-1.477,0.148c-0.668,0.12-1.295,0.319-1.93,0.52
		c-0.321,0.1-0.654,0.139-0.971,0.263L18.194,307.185c-6.17,2.375-10.242,8.306-10.242,14.917v644.73
		c0,5.301,2.623,10.257,7.011,13.23c4.377,2.972,9.953,3.585,14.883,1.626l277.549-110.404L651.837,998.43
		c0.447,0.168,0.915,0.25,1.37,0.37c0.391,0.107,0.762,0.243,1.156,0.317c0.997,0.19,2.002,0.307,3.009,0.307
		c0.993,0,1.987-0.116,2.967-0.304c0.375-0.067,0.729-0.19,1.091-0.281c0.431-0.116,0.872-0.191,1.293-0.344l319.292-113.399
		c6.38-2.261,10.636-8.291,10.636-15.061V203.123C992.65,197.571,989.767,192.412,985.037,189.504z M656.687,32.09
		c121.372,0,220.119,98.746,220.119,220.118c0,3.202-0.172,6.563-0.475,10.042c-4.675,52.628-44.122,145.318-114.782,269.475
		c-0.564,0.989-1.127,1.986-1.688,2.971c-1.5,2.625-3,5.228-4.498,7.839c-2.272,3.944-4.548,7.883-6.813,11.771
		c-0.239,0.409-0.479,0.822-0.719,1.231c-37.168,63.724-72.654,119.021-91.151,147.274c-20.711-31.606-62.691-97.057-104.256-170.01
		c-75.794-133.042-115.86-230.069-115.86-280.594C436.564,130.836,535.306,32.09,656.687,32.09z M673.355,960.792V854.168
		c0-8.831-7.153-15.988-15.983-15.988c-8.829,0-15.985,7.157-15.985,15.988v106.327L323.165,843.024V617.602
		c0-8.829-7.158-15.986-15.984-15.986c-8.83,0-15.987,7.157-15.987,15.986v225.72l-251.274,99.95V601.586
		c2.438-2.069,4.834-4.133,7.327-6.22c6.773-5.659,7.674-15.739,2.015-22.518c-2.479-2.961-5.817-4.731-9.342-5.39V333.077
		l277.024-106.67v95.695c0,8.83,7.16,15.986,15.986,15.986c8.83,0,15.987-7.156,15.987-15.986v-93.165l55.757,27.761
		c0.076,2.053,0.206,4.155,0.376,6.294c0.032,0.417,0.085,0.85,0.122,1.268c0.256,2.946,0.622,5.984,1.058,9.082
		c0.167,1.207,0.319,2.402,0.515,3.639c0.447,2.814,0.971,5.697,1.546,8.622c8.32,42.775,31.004,100.691,67.776,173.131
		c1.968,3.888,3.96,7.781,5.965,11.669c0.949,1.833,1.867,3.637,2.832,5.486c67.067,128.946,152.7,256.134,158.575,264.825
		c2.977,4.401,7.936,7.033,13.248,7.033c2.647,0,5.217-0.661,7.496-1.866c2.275-1.212,4.255-2.967,5.742-5.167
		c5.869-8.672,91.042-135.196,158.026-263.784c1.319-2.526,2.592-5,3.879-7.493c1.578-3.062,3.143-6.125,4.695-9.186
		c37.406-73.502,60.392-132.136,68.666-175.268c0.416-2.146,0.791-4.259,1.141-6.347c0.286-1.765,0.567-3.519,0.804-5.228
		c0.403-2.883,0.729-5.698,0.984-8.448c0.063-0.749,0.156-1.518,0.214-2.254c0.193-2.489,0.337-4.935,0.397-7.308l51.95-26.277
		v358.135c-2.446,2.305-4.888,4.635-7.321,6.863c-6.504,5.975-6.936,16.085-0.966,22.592c2.293,2.498,5.209,4.076,8.287,4.762
		v237.271L673.355,960.792z"/>
	<path fill="#5C5051" d="M653.749,397.061c68.144,0,123.585-55.442,123.585-123.588c0-68.148-55.441-123.59-123.585-123.59
		c-68.146,0-123.592,55.442-123.592,123.59C530.157,341.619,585.603,397.061,653.749,397.061z M653.749,181.853
		c50.518,0,91.617,41.1,91.617,91.619c0,50.517-41.1,91.616-91.617,91.616s-91.618-41.1-91.618-91.616
		C562.131,222.953,603.231,181.853,653.749,181.853z"/>
	<path fill="#5C5051" d="M763.889,705.495c-5.263,1.3-10.603,2.464-15.867,3.464c-8.677,1.634-14.378,9.999-12.738,18.673
		c1.449,7.674,8.156,13.016,15.689,13.016c0.98,0,1.984-0.093,2.986-0.277c5.841-1.105,11.759-2.396,17.601-3.834
		c8.57-2.117,13.802-10.78,11.684-19.356C781.126,708.605,772.456,703.383,763.889,705.495z"/>
	<path fill="#5C5051" d="M881.198,651.541c-11.128,7.46-22.378,14.336-33.45,20.444c-7.73,4.261-10.543,13.982-6.28,21.713
		c2.916,5.288,8.374,8.268,14.011,8.268c2.612,0,5.26-0.64,7.705-1.987c11.876-6.543,23.928-13.906,35.818-21.884
		c7.333-4.916,9.289-14.847,4.378-22.183C898.457,648.587,888.521,646.624,881.198,651.541z"/>
	<path fill="#5C5051" d="M119.122,504.063c-9.477,5.62-19.249,11.85-29.043,18.518c-7.303,4.957-9.198,14.903-4.234,22.205
		c3.092,4.55,8.119,6.995,13.231,6.995c3.097,0,6.226-0.896,8.974-2.767c9.262-6.294,18.472-12.168,27.387-17.455
		c7.595-4.512,10.098-14.317,5.589-21.908C136.521,502.058,126.708,499.553,119.122,504.063z"/>
	<path fill="#5C5051" d="M227.069,460.351c-11.192,2.18-22.748,5.258-34.345,9.151c-8.366,2.812-12.874,11.874-10.06,20.242
		c2.242,6.682,8.468,10.9,15.149,10.9c1.684,0,3.402-0.271,5.092-0.835c10.265-3.448,20.451-6.165,30.27-8.077
		c8.667-1.686,14.326-10.077,12.637-18.742C244.126,464.322,235.727,458.66,227.069,460.351z"/>
	<path fill="#5C5051" d="M509.471,627.881c-1.919-1.531-3.854-3.035-5.795-4.544c-5.553-4.322-10.799-8.403-15.247-12.845
		c-0.112-0.113-0.227-0.224-0.339-0.336c-1.025-0.96-2.037-1.927-3.045-2.896c-6.37-6.119-16.479-5.924-22.604,0.44
		c-6.124,6.364-5.924,16.485,0.441,22.605c1.031,0.989,2.07,1.977,3.115,2.962c5.803,5.779,12.03,10.622,18.05,15.3
		c1.829,1.427,3.659,2.852,5.465,4.292c2.948,2.352,6.467,3.5,9.968,3.5c4.692-0.005,9.344-2.062,12.497-6.014
		C517.487,643.453,516.364,633.394,509.471,627.881z"/>
	<path fill="#5C5051" d="M345.813,472.431c-11.193-5-22.852-8.895-34.654-11.577c-8.61-1.962-17.171,3.436-19.13,12.046
		c-1.954,8.606,3.436,17.173,12.042,19.128c9.764,2.219,19.418,5.45,28.704,9.594c2.123,0.946,4.332,1.396,6.51,1.396
		c6.12,0,11.954-3.53,14.606-9.475C357.493,485.486,353.87,476.031,345.813,472.431z"/>
	<path fill="#5C5051" d="M410.938,525.258c-5.986-6.489-16.102-6.903-22.591-0.913c-6.489,5.979-6.9,16.095-0.918,22.587
		c7.526,8.154,14.939,16.669,21.833,24.654c3.161,3.663,7.619,5.544,12.106,5.544c3.7,0,7.414-1.281,10.437-3.89
		c6.685-5.766,7.424-15.86,1.658-22.545C426.393,542.506,418.77,533.756,410.938,525.258z"/>
	<path fill="#5C5051" d="M585.593,682.116c-4.878-3.143-9.786-6.214-14.688-9.267c-7.494-4.671-17.354-2.382-22.024,5.104
		c-4.665,7.494-2.382,17.356,5.111,22.024c4.772,2.974,9.537,5.953,14.281,9.015c2.678,1.719,5.677,2.547,8.646,2.547
		c5.249,0,10.397-2.581,13.452-7.326C595.151,696.79,593.013,686.896,585.593,682.116z"/>
</g>
</svg>
