<?xml version="1.0" encoding="utf-8"?>
<!-- Generator: Adobe Illustrator 16.0.0, SVG Export Plug-In . SVG Version: 6.00 Build 0)  -->
<!DOCTYPE svg PUBLIC "-//W3C//DTD SVG 1.1//EN" "http://www.w3.org/Graphics/SVG/1.1/DTD/svg11.dtd">
<svg version="1.1" id="Layer_1" xmlns="http://www.w3.org/2000/svg" xmlns:xlink="http://www.w3.org/1999/xlink" x="0px" y="0px"
	 width="2500px" height="1500px" viewBox="-500 0 2500 1500" enable-background="new -500 0 2500 1500" xml:space="preserve">
<path fill="#96DE2A" d="M924.102,295.904c-121.374,0-220.119,98.746-220.119,220.121c0,50.522,40.063,147.548,115.861,280.59
	c41.564,72.957,83.548,138.402,104.254,170.015c18.494-28.255,53.981-83.552,91.155-147.279c0.237-0.408,0.479-0.816,0.715-1.229
	c2.267-3.889,4.542-7.826,6.815-11.771c1.497-2.607,2.994-5.219,4.494-7.842c0.563-0.982,1.129-1.977,1.689-2.967
	c70.658-124.159,110.11-216.851,114.785-269.476c0.297-3.48,0.47-6.842,0.47-10.041
	C1144.223,394.65,1045.48,295.904,924.102,295.904z M921.168,628.903c-50.52,0-91.621-41.101-91.621-91.619
	c0-50.518,41.102-91.616,91.621-91.616c50.521,0,91.615,41.1,91.615,91.616C1012.783,587.803,971.689,628.903,921.168,628.903z"/>
<g>
	<path fill="#5C5051" d="M1234.037,439.504c-4.731-2.907-10.633-3.152-15.589-0.646l-62.727,31.73
		c-15.613-124.122-121.752-220.471-250.036-220.471c-128.732,0-235.17,97.015-250.207,221.761l-66.426-33.067
		c-0.134-0.067-0.281-0.093-0.416-0.155c-0.577-0.271-1.181-0.47-1.788-0.668c-0.423-0.139-0.841-0.293-1.268-0.394
		c-0.581-0.137-1.179-0.2-1.777-0.269c-0.498-0.059-0.982-0.137-1.48-0.151c-0.134-0.002-0.261-0.04-0.395-0.04
		c-0.465,0-0.905,0.102-1.366,0.142c-0.496,0.041-0.988,0.059-1.477,0.147c-0.668,0.12-1.295,0.319-1.93,0.521
		c-0.321,0.1-0.654,0.139-0.972,0.263L267.194,557.185c-6.17,2.375-10.242,8.307-10.242,14.917v644.73
		c0,5.301,2.623,10.257,7.011,13.229c4.377,2.973,9.953,3.586,14.883,1.627l277.548-110.404l344.442,127.146
		c0.447,0.168,0.915,0.25,1.37,0.37c0.391,0.107,0.762,0.243,1.156,0.317c0.997,0.189,2.002,0.307,3.009,0.307
		c0.993,0,1.987-0.116,2.967-0.304c0.375-0.067,0.729-0.19,1.091-0.281c0.432-0.116,0.872-0.191,1.293-0.344l319.292-113.399
		c6.38-2.261,10.637-8.291,10.637-15.061V453.123C1241.65,447.571,1238.767,442.412,1234.037,439.504z M905.688,282.09
		c121.371,0,220.118,98.746,220.118,220.118c0,3.202-0.172,6.563-0.475,10.042c-4.675,52.628-44.122,145.318-114.782,269.475
		c-0.563,0.989-1.127,1.986-1.688,2.972c-1.5,2.625-3,5.228-4.498,7.839c-2.272,3.943-4.548,7.883-6.813,11.771
		c-0.239,0.409-0.479,0.822-0.719,1.231c-37.168,63.724-72.654,119.021-91.151,147.273c-20.711-31.605-62.69-97.057-104.256-170.01
		C725.63,649.759,685.564,552.731,685.564,502.207C685.564,380.836,784.306,282.09,905.688,282.09z M922.355,1210.792v-106.624
		c0-8.831-7.153-15.988-15.983-15.988c-8.829,0-15.985,7.157-15.985,15.988v106.327l-318.222-117.471V867.602
		c0-8.828-7.158-15.985-15.984-15.985c-8.83,0-15.986,7.156-15.986,15.985v225.721l-251.274,99.95V851.586
		c2.438-2.069,4.834-4.133,7.327-6.22c6.773-5.659,7.674-15.739,2.015-22.519c-2.479-2.961-5.816-4.73-9.342-5.39V583.077
		l277.024-106.67v95.695c0,8.829,7.159,15.985,15.985,15.985c8.83,0,15.987-7.156,15.987-15.985v-93.165l55.757,27.761
		c0.076,2.053,0.206,4.154,0.376,6.294c0.032,0.417,0.085,0.85,0.122,1.268c0.256,2.946,0.622,5.984,1.059,9.082
		c0.167,1.207,0.318,2.402,0.515,3.64c0.447,2.813,0.971,5.696,1.546,8.621c8.32,42.775,31.004,100.691,67.776,173.132
		c1.968,3.888,3.96,7.78,5.965,11.669c0.949,1.833,1.867,3.637,2.832,5.485c67.066,128.946,152.7,256.134,158.575,264.825
		c2.977,4.401,7.936,7.033,13.248,7.033c2.646,0,5.217-0.661,7.496-1.866c2.274-1.212,4.254-2.967,5.741-5.167
		c5.869-8.672,91.042-135.196,158.026-263.784c1.318-2.525,2.592-5,3.879-7.493c1.578-3.062,3.143-6.125,4.695-9.186
		c37.405-73.502,60.392-132.136,68.666-175.268c0.416-2.146,0.791-4.26,1.141-6.348c0.286-1.765,0.567-3.519,0.804-5.228
		c0.403-2.883,0.729-5.698,0.984-8.448c0.063-0.749,0.156-1.518,0.214-2.254c0.193-2.489,0.337-4.936,0.396-7.308l51.95-26.277
		v358.135c-2.446,2.305-4.888,4.635-7.321,6.863c-6.504,5.975-6.936,16.085-0.966,22.592c2.293,2.498,5.209,4.076,8.287,4.762
		v237.271L922.355,1210.792z"/>
	<path fill="#5C5051" d="M902.749,647.061c68.144,0,123.585-55.441,123.585-123.588c0-68.147-55.441-123.59-123.585-123.59
		c-68.146,0-123.592,55.442-123.592,123.59C779.157,591.619,834.604,647.061,902.749,647.061z M902.749,431.853
		c50.519,0,91.617,41.101,91.617,91.619c0,50.518-41.101,91.616-91.617,91.616s-91.618-41.1-91.618-91.616
		C811.131,472.953,852.23,431.853,902.749,431.853z"/>
	<path fill="#5C5051" d="M1012.889,955.495c-5.263,1.3-10.603,2.464-15.867,3.464c-8.677,1.634-14.377,9.999-12.737,18.673
		c1.448,7.674,8.155,13.016,15.688,13.016c0.98,0,1.984-0.093,2.986-0.276c5.841-1.105,11.759-2.396,17.602-3.834
		c8.569-2.117,13.802-10.78,11.684-19.356S1021.456,953.383,1012.889,955.495z"/>
	<path fill="#5C5051" d="M1130.198,901.541c-11.128,7.46-22.378,14.336-33.45,20.444c-7.73,4.261-10.543,13.981-6.28,21.713
		c2.916,5.288,8.374,8.268,14.011,8.268c2.612,0,5.261-0.64,7.705-1.986c11.876-6.544,23.929-13.906,35.818-21.885
		c7.333-4.916,9.289-14.847,4.378-22.183C1147.457,898.587,1137.521,896.624,1130.198,901.541z"/>
	<path fill="#5C5051" d="M368.122,754.063c-9.478,5.619-19.249,11.85-29.043,18.518c-7.303,4.957-9.198,14.903-4.234,22.205
		c3.093,4.55,8.119,6.995,13.231,6.995c3.097,0,6.226-0.896,8.974-2.768c9.263-6.294,18.472-12.168,27.388-17.455
		c7.595-4.512,10.098-14.316,5.589-21.907C385.521,752.058,375.708,749.553,368.122,754.063z"/>
	<path fill="#5C5051" d="M476.069,710.351c-11.192,2.181-22.748,5.259-34.346,9.151c-8.365,2.813-12.874,11.874-10.06,20.242
		c2.242,6.682,8.468,10.899,15.148,10.899c1.685,0,3.402-0.271,5.093-0.835c10.265-3.447,20.45-6.165,30.27-8.076
		c8.667-1.687,14.326-10.077,12.638-18.742C493.126,714.322,484.727,708.66,476.069,710.351z"/>
	<path fill="#5C5051" d="M758.471,877.881c-1.919-1.531-3.854-3.035-5.795-4.544c-5.553-4.322-10.799-8.403-15.247-12.845
		c-0.111-0.113-0.227-0.225-0.339-0.336c-1.024-0.96-2.037-1.927-3.045-2.896c-6.37-6.119-16.479-5.924-22.604,0.44
		c-6.124,6.364-5.925,16.484,0.44,22.604c1.031,0.989,2.07,1.978,3.115,2.962c5.803,5.779,12.03,10.622,18.05,15.301
		c1.829,1.427,3.659,2.852,5.465,4.292c2.948,2.352,6.467,3.5,9.969,3.5c4.691-0.006,9.344-2.063,12.496-6.015
		C766.487,893.453,765.364,883.394,758.471,877.881z"/>
	<path fill="#5C5051" d="M594.813,722.431c-11.192-5-22.852-8.895-34.653-11.576c-8.61-1.963-17.171,3.436-19.13,12.046
		c-1.954,8.605,3.436,17.173,12.042,19.128c9.764,2.219,19.418,5.449,28.704,9.594c2.123,0.946,4.332,1.396,6.51,1.396
		c6.12,0,11.954-3.529,14.605-9.475C606.493,735.486,602.87,726.031,594.813,722.431z"/>
	<path fill="#5C5051" d="M659.938,775.258c-5.985-6.489-16.102-6.903-22.591-0.913c-6.488,5.979-6.899,16.096-0.918,22.587
		c7.526,8.154,14.939,16.669,21.833,24.654c3.161,3.663,7.619,5.544,12.106,5.544c3.7,0,7.414-1.281,10.437-3.89
		c6.686-5.767,7.424-15.86,1.658-22.545C675.393,792.506,667.77,783.756,659.938,775.258z"/>
	<path fill="#5C5051" d="M834.593,932.116c-4.878-3.144-9.786-6.214-14.688-9.268c-7.494-4.671-17.354-2.382-22.024,5.104
		c-4.665,7.494-2.382,17.355,5.111,22.023c4.771,2.975,9.537,5.953,14.281,9.016c2.678,1.719,5.677,2.547,8.646,2.547
		c5.249,0,10.397-2.581,13.452-7.326C844.151,946.79,842.013,936.896,834.593,932.116z"/>
</g>
</svg>
