<?xml version="1.0" encoding="utf-8"?>
<!-- Generator: Adobe Illustrator 16.0.0, SVG Export Plug-In . SVG Version: 6.00 Build 0)  -->
<!DOCTYPE svg PUBLIC "-//W3C//DTD SVG 1.1//EN" "http://www.w3.org/Graphics/SVG/1.1/DTD/svg11.dtd">
<svg version="1.1" id="Layer_1" xmlns="http://www.w3.org/2000/svg" xmlns:xlink="http://www.w3.org/1999/xlink" x="0px" y="0px"
	 width="2500px" height="1500px" viewBox="0 0 2500 1500" enable-background="new 0 0 2500 1500" xml:space="preserve">
<g>
	<path fill="none" stroke="#5A5050" stroke-width="30" stroke-linecap="round" stroke-linejoin="round" stroke-miterlimit="10" d="
		M1094.395,1081.574"/>
	<path fill="none" stroke="#5A5050" stroke-width="30" stroke-linecap="round" stroke-linejoin="round" stroke-miterlimit="10" d="
		M1094.395,472.605"/>
	<path fill="none" stroke="#5A5050" stroke-width="30" stroke-linecap="round" stroke-linejoin="round" stroke-miterlimit="10" d="
		M1405.615,598.103"/>
	<path fill="none" stroke="#5A5050" stroke-width="30" stroke-linecap="round" stroke-linejoin="round" stroke-miterlimit="10" d="
		M1405.615,1207.072"/>
	<path fill="none" stroke="#5A5050" stroke-width="30" stroke-linecap="round" stroke-linejoin="round" stroke-miterlimit="10" d="
		M1623.684,514.659"/>
	<path fill="none" stroke="#5A5050" stroke-width="30" stroke-linecap="round" stroke-linejoin="round" stroke-miterlimit="10" d="
		M1405.615,598.103"/>
	<path fill="none" stroke="#5A5050" stroke-width="30" stroke-linecap="round" stroke-linejoin="round" stroke-miterlimit="10" d="
		M1094.395,859.5"/>
	<g>
		<path fill="#96DE2A" d="M1420.754,322.741c-0.17,0-0.332-0.02-0.5-0.025c-0.168,0.006-0.332,0.025-0.5,0.025
			c-114.969,0-208.5,93.533-208.5,208.5c0,106.31,70.307,247.459,209,419.698c138.691-172.239,209-313.389,209-419.698
			C1629.254,416.274,1535.721,322.741,1420.754,322.741z M1420.254,617.091c-47.063,0-85.35-38.288-85.35-85.35
			s38.287-85.35,85.35-85.35c47.061,0,85.35,38.288,85.35,85.35S1467.314,617.091,1420.254,617.091z"/>
	</g>
	<g>
		<path fill="#5A5050" d="M878.942,753.555c-15.367,9.28-30.367,19.958-44.582,31.737c-6.379,5.285-7.266,14.741-1.98,21.12
			c2.967,3.58,7.246,5.43,11.559,5.43c3.372,0,6.763-1.131,9.562-3.45c13.074-10.833,26.852-20.643,40.95-29.157
			c7.091-4.282,9.368-13.503,5.086-20.594C895.254,751.548,886.034,749.272,878.942,753.555z"/>
		<path fill="#5A5050" d="M959.612,718.567c-13.974,3.816-27.982,8.774-41.636,14.736c-7.592,3.315-11.059,12.157-7.744,19.749
			c2.462,5.639,7.971,9.002,13.754,9.002c2.003,0,4.041-0.404,5.995-1.257c12.328-5.383,24.956-9.854,37.535-13.289
			c7.992-2.183,12.701-10.43,10.519-18.422S967.604,716.388,959.612,718.567z"/>
		<path fill="#5A5050" d="M1347.727,939.15c-13.713-7.365-27.264-16.402-41.424-27.629c-6.492-5.146-15.928-4.055-21.074,2.437
			c-5.145,6.492-4.055,15.927,2.438,21.073c15.568,12.341,30.57,22.334,45.867,30.549c2.258,1.213,4.688,1.788,7.084,1.788
			c5.346,0,10.521-2.866,13.229-7.905C1357.766,952.164,1355.025,943.07,1347.727,939.15z"/>
		<path fill="#5A5050" d="M1585.684,904.409c-13.896,10.679-28.006,20.04-41.936,27.823c-7.232,4.041-9.82,13.179-5.779,20.411
			c2.748,4.917,7.85,7.687,13.109,7.687c2.477,0,4.986-0.614,7.303-1.908c15.197-8.491,30.533-18.661,45.582-30.226
			c6.57-5.048,7.803-14.465,2.754-21.033C1601.67,900.595,1592.254,899.36,1585.684,904.409z"/>
		<path fill="#5A5050" d="M1507.73,949.091c-12.631,4.757-25.344,8.294-37.781,10.513c-8.156,1.455-13.588,9.245-12.133,17.4
			c1.297,7.266,7.619,12.369,14.75,12.369c0.873,0,1.762-0.077,2.65-0.236c14.244-2.54,28.738-6.567,43.086-11.97
			c7.752-2.92,11.67-11.571,8.752-19.324C1524.135,950.091,1515.488,946.173,1507.73,949.091z"/>
		<path fill="#5A5050" d="M1246.564,855.415c-5.709-6.001-15.203-6.241-21.207-0.531c-6.002,5.709-6.24,15.204-0.531,21.206
			c11.303,11.885,20.898,21.539,30.194,30.382c2.904,2.761,6.623,4.131,10.336,4.131c3.965,0,7.924-1.563,10.871-4.662
			c5.709-6.003,5.473-15.497-0.531-21.207C1266.771,876.245,1257.514,866.929,1246.564,855.415z"/>
		<path fill="#5A5050" d="M1616.688,878.13c-6.072,5.636-6.426,15.127-0.789,21.198c2.955,3.185,6.971,4.796,10.998,4.796
			c3.65,0,7.313-1.325,10.199-4.006c10.318-9.577,20.572-19.899,30.475-30.682c5.605-6.101,5.201-15.59-0.898-21.193
			c-6.104-5.605-15.594-5.201-21.195,0.899C1636.111,859.34,1626.426,869.093,1616.688,878.13z"/>
		<path fill="#5A5050" d="M1181.387,786.303c-5.858-5.858-15.355-5.858-21.214-0.002c-5.857,5.857-5.859,15.354-0.002,21.213
			c10.213,10.215,20.243,20.895,28.708,29.995c2.955,3.177,6.965,4.783,10.986,4.783c3.657,0,7.324-1.33,10.213-4.017
			c6.065-5.643,6.409-15.134,0.767-21.199C1202.199,807.78,1191.937,796.854,1181.387,786.303z"/>
		<path fill="#5A5050" d="M1059.681,710.663c-7.762-1.38-15.692-2.108-23.568-2.163c-7.307-0.053-14.663,0.187-21.926,0.708
			c-8.263,0.592-14.481,7.771-13.89,16.034c0.592,8.263,7.758,14.475,16.034,13.89c5.907-0.423,11.907-0.638,17.834-0.638
			c0.577,0,1.154,0.002,1.736,0.006c6.192,0.043,12.426,0.615,18.526,1.7c0.889,0.158,1.772,0.234,2.644,0.234
			c7.133,0,13.459-5.108,14.751-12.376C1073.273,719.901,1067.837,712.113,1059.681,710.663z"/>
		<path fill="#5A5050" d="M1149.531,756.865c-16.027-13.392-31.135-23.619-46.186-31.265c-7.387-3.752-16.416-0.806-20.168,6.58
			c-3.752,7.386-0.805,16.415,6.581,20.167c13.008,6.607,26.267,15.615,40.536,27.538c2.807,2.346,6.217,3.49,9.609,3.49
			c4.291,0,8.552-1.831,11.519-5.382C1156.734,771.638,1155.888,762.178,1149.531,756.865z"/>
		<path fill="#5A5050" d="M1714.6,794.371V485.609c0-4.938-2.43-9.559-6.496-12.357c-4.068-2.798-9.256-3.417-13.863-1.652
			l-56.316,21.55c-5.203-55.077-29.156-106.178-68.773-145.794c-45.047-45.047-104.939-69.855-168.645-69.855
			c-0.17,0-0.332,0.02-0.5,0.025c-0.168-0.006-0.332-0.025-0.5-0.025c-63.707,0-123.6,24.808-168.645,69.855
			c-37.47,37.469-60.92,85.214-67.755,136.878l-63.085-25.524c-0.045-0.018-0.092-0.028-0.138-0.046
			c-0.493-0.194-0.995-0.362-1.507-0.504c-0.063-0.017-0.124-0.037-0.188-0.053c-1.699-0.446-3.482-0.594-5.277-0.414
			c-0.063,0.006-0.124,0.014-0.186,0.021c-0.512,0.058-1.021,0.143-1.531,0.255c-0.086,0.019-0.17,0.035-0.255,0.055
			c-0.512,0.122-1.021,0.271-1.527,0.449c-0.051,0.018-0.103,0.032-0.154,0.05c-0.074,0.027-0.149,0.045-0.224,0.073L795.05,571.09
			c-5.805,2.221-9.639,7.793-9.639,14.009v251.986c-0.015,0.009-0.015,6.853,0,6.843v350.141c0,4.938,2.43,9.559,6.498,12.357
			c2.537,1.746,5.508,2.643,8.503,2.643c1.808,0,3.625-0.326,5.36-0.99l288.459-110.38l305.759,123.707
			c1.813,0.733,3.723,1.095,5.625,1.095c2.945,0,5.871-0.868,8.385-2.563c0.014-0.009,0.025-0.019,0.039-0.027l290.922-111.322
			c5.805-2.222,9.639-7.794,9.639-14.01V810.639C1714.6,810.469,1714.6,794.344,1714.6,794.371z M1399.506,307.5
			c0.168,0,0.332-0.02,0.5-0.025c0.168,0.006,0.33,0.025,0.5,0.025c113.6,0,206.258,91.322,208.447,204.406
			c-0.348,1.85-0.35,3.776,0.035,5.693c-0.697,106.125-70.982,246.719-208.982,418.099c-138.693-172.239-209-313.389-209-419.698
			C1191.005,401.033,1284.537,307.5,1399.506,307.5z M1684.6,801.269c-1.67,2.332-3.744,5.172-6.217,8.448
			c-4.99,6.613-3.674,16.02,2.939,21.009c1.033,0.78,2.135,1.403,3.277,1.879v251.652l-263.984,101.015v-100.773
			c0-8.284-6.715-15-15-15c-8.283,0-15,6.716-15,15v100.752l-281.22-113.779V859.5c0-8.284-6.716-15-15-15s-15,6.716-15,15v211.753
			l-263.984,101.015V845.402c2.046-2.387,4.949-5.663,8.677-9.592c5.703-6.009,5.454-15.503-0.555-21.206
			c-2.325-2.206-5.174-3.511-8.122-3.946V595.42l263.984-101.015V579.5c0,8.284,6.716,15,15,15s15-6.716,15-15v-84.636
			l51.613,20.883c0,0.084-0.003,0.169-0.003,0.253c0,68.089,26.352,149.158,78.322,240.953
			c34.637,61.18,79.508,125.781,136.881,197.036c-5.18,1.066-9.637,4.84-11.314,10.247c-2.455,7.912,1.969,16.316,9.881,18.771
			c14.404,4.47,29.277,7.396,44.205,8.7c0.443,0.038,0.885,0.058,1.322,0.058c7.693,0,14.244-5.888,14.926-13.696
			c0.721-8.253-5.387-15.527-13.639-16.248c-1.271-0.111-2.541-0.246-3.811-0.385c60.268-74.212,107.063-141.179,142.904-204.483
			c49.721-87.823,75.975-165.819,78.156-232.033l45.76-17.51V801.269z"/>
	</g>
	<path fill="#5A5050" d="M1400.006,631.85c-63.604,0-115.35-51.746-115.35-115.35s51.746-115.35,115.35-115.35
		s115.35,51.746,115.35,115.35S1463.609,631.85,1400.006,631.85z M1400.006,431.15c-47.063,0-85.35,38.288-85.35,85.35
		s38.287,85.35,85.35,85.35c47.061,0,85.35-38.288,85.35-85.35S1447.066,431.15,1400.006,431.15z"/>
</g>
</svg>
