<?xml version="1.0" encoding="utf-8"?>
<!-- Generator: Adobe Illustrator 16.0.0, SVG Export Plug-In . SVG Version: 6.00 Build 0)  -->
<!DOCTYPE svg PUBLIC "-//W3C//DTD SVG 1.1//EN" "http://www.w3.org/Graphics/SVG/1.1/DTD/svg11.dtd">
<svg version="1.1" id="Layer_1" xmlns="http://www.w3.org/2000/svg" xmlns:xlink="http://www.w3.org/1999/xlink" x="0px" y="0px"
	 width="1000px" height="1000px" viewBox="0 0 1000 1000" enable-background="new 0 0 1000 1000" xml:space="preserve">
<path fill="#96DE2A" d="M775.478,428.781c67.475,80.147,108.99,181.701,112.626,274.298h-64.058
	c-2.882-89.807-34.901-186.785-88.966-268.193c-36.14-54.417-78.739-97.419-124.595-126.626
	C669.844,329.954,727.114,371.335,775.478,428.781z"/>
<path fill="#96DE2A" d="M256.899,428.781c48.358-57.446,105.632-98.827,164.992-120.521
	c-45.856,29.207-88.455,72.209-124.595,126.626c-54.069,81.408-86.083,178.386-88.966,268.193h-64.062
	C147.904,610.482,189.424,508.929,256.899,428.781z"/>
<path fill="#96DE2A" d="M468.325,491.264c15.991-11.221,32.097-16.913,47.866-16.913c15.765,0,31.87,5.692,47.86,16.913
	c16.978,11.918,33.531,29.98,47.873,52.236c6.451,10.02,12.344,22.749,17.59,36.329h-39.909c-7.275,0-13.175,5.897-13.175,13.174
	c0,7.274,5.899,13.176,13.175,13.176h49.065c3.704,11.781,6.908,23.349,9.525,33.584H384.182
	c2.617-10.235,5.821-21.803,9.525-33.584h146.104c7.278,0,13.174-5.901,13.174-13.176c0-7.276-5.896-13.174-13.174-13.174H402.863
	c5.247-13.58,11.134-26.31,17.59-36.329C434.794,521.244,451.348,503.183,468.325,491.264z"/>
<g>
	<path fill="#5B5050" d="M986.826,693.754h-87.469c-3.088-99.143-47.034-207.961-118.902-293.329
		C701.664,306.834,599.809,253.16,501.007,253.16c-98.802,0-200.657,53.675-279.448,147.266
		c-71.871,85.369-115.807,194.181-118.891,293.329H15.188c-7.277,0-13.174,5.896-13.174,13.175c0,7.276,5.897,13.177,13.174,13.177
		h971.638c7.277,0,13.174-5.9,13.174-13.177C1000,699.65,994.104,693.754,986.826,693.754z M501.007,284.729
		c71.282,16.294,142.921,72.01,196.943,153.35c51.254,77.178,81.675,168.841,84.56,253.611H219.5
		c2.889-84.771,33.304-176.434,84.563-253.611C358.089,356.739,429.721,301.024,501.007,284.729z M760.298,417.396
		c67.471,80.149,108.991,181.703,112.626,274.295h-64.062c-2.881-89.806-34.897-186.782-88.964-268.19
		c-36.141-54.416-78.741-97.419-124.593-126.628C654.661,318.568,711.936,359.949,760.298,417.396z M241.717,417.396
		c48.361-57.446,105.635-98.827,164.991-120.523c-45.852,29.209-88.455,72.212-124.593,126.628
		c-54.067,81.408-86.086,178.384-88.964,268.19h-64.062C132.725,599.099,174.241,497.544,241.717,417.396z"/>
	<path fill="#5B5050" d="M341.901,649.746c2.502,3.148,6.297,4.981,10.319,4.981h297.574c0.008,0,0.019,0,0.034,0
		c7.278,0,13.178-5.9,13.178-13.174c0-1.39-0.217-2.729-0.616-3.987c-8.804-37.648-23.439-88.597-43.498-119.725
		c-16.166-25.09-35.146-45.674-54.883-59.533c-20.513-14.394-41.712-21.694-63.002-21.694c-21.293,0-42.489,7.3-63.001,21.697
		c-19.737,13.855-38.716,34.439-54.884,59.53c-20.238,31.407-34.955,82.988-43.735,120.724
		C338.475,642.483,339.402,646.6,341.901,649.746z M453.143,479.879c15.994-11.223,32.095-16.913,47.864-16.913
		c15.769,0,31.87,5.69,47.861,16.913c16.979,11.918,33.534,29.981,47.872,52.235c6.456,10.017,12.345,22.751,17.59,36.328h-39.906
		c-7.276,0-13.177,5.9-13.177,13.174c0,7.278,5.9,13.175,13.177,13.175h49.063c3.705,11.785,6.907,23.352,9.524,33.588H369
		c2.62-10.236,5.822-21.803,9.528-33.588h146.1c7.278,0,13.176-5.896,13.176-13.175c0-7.273-5.897-13.174-13.176-13.174H387.679
		c5.25-13.577,11.139-26.312,17.591-36.328C419.614,509.86,436.167,491.797,453.143,479.879z"/>
</g>
</svg>
