<?xml version="1.0" encoding="utf-8"?>
<!-- Generator: Adobe Illustrator 16.0.0, SVG Export Plug-In . SVG Version: 6.00 Build 0)  -->
<!DOCTYPE svg PUBLIC "-//W3C//DTD SVG 1.1//EN" "http://www.w3.org/Graphics/SVG/1.1/DTD/svg11.dtd">
<svg version="1.1" id="Layer_1" xmlns="http://www.w3.org/2000/svg" xmlns:xlink="http://www.w3.org/1999/xlink" x="0px" y="0px"
	 width="2500px" height="1500px" viewBox="0 0 2500 1500" enable-background="new 0 0 2500 1500" xml:space="preserve">
<g>
	<g>
		<g>
			<path fill="#96DE2A" d="M1264.128,534.722c0.006,0,0.011,0,0.017,0l54.184,0.059c-17.963-8.148-36.055-14.893-54.2-20.166
				c-18.146,5.273-36.237,12.018-54.2,20.166l54.184-0.059C1264.117,534.722,1264.123,534.722,1264.128,534.722z"/>
			<path fill="#96DE2A" d="M1279.942,564.739l-15.814-0.017l-15.814,0.017c-176.708,70.346-301.008,279.032-357.488,445.253h373.047
				h0.256h373.303C1580.95,843.771,1456.65,635.085,1279.942,564.739z M1512.89,964.571c-0.934,0.175-1.863,0.26-2.778,0.26
				c-1.028,0-2.037-0.118-3.021-0.322l-487.859,0.319c-0.022,0-0.045,0.003-0.067,0.003c-0.487,0-0.978-0.027-1.471-0.076
				c-0.222-0.021-0.438-0.062-0.656-0.092c-0.218-0.031-0.434-0.051-0.651-0.092c-0.031-0.006-0.061-0.016-0.091-0.021
				c-0.353-0.068-0.695-0.157-1.038-0.249c-0.143-0.039-0.29-0.069-0.431-0.111c-0.317-0.095-0.625-0.211-0.934-0.326
				c-0.162-0.061-0.329-0.113-0.489-0.179c-0.25-0.104-0.49-0.226-0.733-0.343c-0.205-0.099-0.415-0.189-0.614-0.296
				c-0.18-0.097-0.35-0.208-0.524-0.312c-0.247-0.146-0.498-0.287-0.735-0.446c-0.127-0.086-0.245-0.183-0.37-0.272
				c-0.269-0.192-0.539-0.384-0.794-0.593c-0.111-0.092-0.212-0.193-0.32-0.288c-0.252-0.22-0.506-0.438-0.741-0.673
				c-0.142-0.141-0.269-0.294-0.404-0.439c-0.188-0.202-0.381-0.4-0.557-0.612c-0.184-0.221-0.35-0.456-0.521-0.688
				c-0.111-0.15-0.23-0.295-0.336-0.449c-0.195-0.285-0.37-0.585-0.545-0.885c-0.066-0.113-0.142-0.221-0.205-0.336
				c-0.166-0.301-0.311-0.614-0.456-0.928c-0.058-0.125-0.126-0.246-0.181-0.374c-0.117-0.274-0.215-0.559-0.316-0.841
				c-0.065-0.179-0.139-0.354-0.197-0.536c-0.071-0.226-0.125-0.46-0.186-0.69c-0.067-0.25-0.141-0.497-0.194-0.751
				c-0.038-0.18-0.06-0.363-0.091-0.545c-0.055-0.313-0.11-0.626-0.145-0.943c-0.018-0.16-0.021-0.323-0.032-0.484
				c-0.025-0.34-0.051-0.679-0.053-1.023c0-0.033-0.005-0.065-0.005-0.099c0-0.177,0.02-0.348,0.026-0.522
				c0.01-0.287,0.016-0.574,0.043-0.863c0.028-0.312,0.077-0.616,0.125-0.922c0.023-0.155,0.033-0.309,0.063-0.464
				c0.012-0.063,0.024-0.124,0.036-0.188c0.007-0.035,0.013-0.07,0.021-0.105c22.188-118.296,58.226-206.709,107.113-262.784
				c42.229-48.437,93.557-72.997,152.554-72.997c0.172,0,0.339,0.02,0.51,0.026c0.171-0.006,0.338-0.026,0.51-0.026
				c58.997,0,110.324,24.56,152.554,72.997c48.929,56.121,84.986,144.633,107.17,263.077
				C1526.396,955.209,1521.032,963.047,1512.89,964.571z"/>
		</g>
	</g>
	<g>
		<path fill="#5A5050" d="M1730.128,997.992h-4.463c-49.063-134.819-119.531-254.878-204.203-347.732
			c-82.591-90.571-175.025-152.025-267.311-177.718c-0.087-0.024-0.174-0.036-0.261-0.059c-0.305-0.079-0.611-0.147-0.922-0.207
			c-0.188-0.037-0.375-0.072-0.563-0.101c-0.286-0.044-0.574-0.077-0.865-0.104c-0.218-0.021-0.435-0.041-0.652-0.052
			c-0.251-0.013-0.503-0.015-0.756-0.015c-0.258,0-0.514,0.002-0.77,0.015c-0.213,0.011-0.426,0.031-0.639,0.051
			c-0.296,0.028-0.59,0.061-0.881,0.106c-0.182,0.028-0.363,0.063-0.545,0.098c-0.317,0.061-0.632,0.131-0.943,0.212
			c-0.083,0.022-0.166,0.033-0.25,0.056c-92.285,25.693-184.719,87.147-267.31,177.718
			c-84.673,92.854-155.14,212.913-204.204,347.732h-4.719c-8.284,0-15,6.716-15,15s6.716,15,15,15h15.163
			c0.031,0,0.062,0.004,0.093,0.004c0.034,0,0.067-0.004,0.101-0.004h70.8c0.034,0,0.069,0.004,0.104,0.004
			c0.033,0,0.065-0.004,0.098-0.004h393.642h0.256h393.898c0.033,0,0.064,0.004,0.098,0.004c0.034,0,0.069-0.004,0.104-0.004h70.8
			c0.033,0,0.066,0.004,0.101,0.004c0.031,0,0.062-0.004,0.093-0.004h14.907c8.284,0,15-6.716,15-15
			S1738.412,997.992,1730.128,997.992z M1693.676,997.992h-38.625c-15.94-48.285-54.714-150.735-124.727-253.163
			c-34.374-50.288-71.788-93.822-111.201-129.393c-27.295-24.633-55.705-45.566-84.938-62.624l26.01,0.028
			C1496.054,637.475,1619.235,799.508,1693.676,997.992z M1250.111,522.722l-54.184,0.059c17.962-8.148,36.056-14.893,54.2-20.166
			c18.146,5.273,36.238,12.018,54.2,20.166l-54.184-0.059c-0.006,0-0.011,0-0.017,0l0,0
			C1250.122,522.722,1250.117,522.722,1250.111,522.722z M1140.061,552.842l26.011-0.028c-29.233,17.057-57.644,37.99-84.938,62.624
			c-39.413,35.57-76.827,79.104-111.201,129.393c-70.013,102.427-108.787,204.877-124.727,253.163h-38.626
			C881.021,799.508,1004.202,637.475,1140.061,552.842z M1249.872,997.992H876.826c56.48-166.222,180.78-374.907,357.487-445.253
			l15.814-0.017l15.814,0.017c176.708,70.346,301.008,279.032,357.488,445.253h-373.303H1249.872z"/>
		<path fill="#5A5050" d="M1496.111,952.831c0.915,0,1.845-0.085,2.778-0.26c8.143-1.524,13.507-9.362,11.981-17.505
			c-22.184-118.444-58.241-206.956-107.17-263.077c-42.229-48.437-93.557-72.997-152.554-72.997c-0.172,0-0.339,0.02-0.51,0.026
			c-0.171-0.006-0.338-0.026-0.51-0.026c-58.997,0-110.324,24.56-152.554,72.997c-48.89,56.076-84.928,144.493-107.116,262.794
			c-0.005,0.027-0.01,0.054-0.015,0.081c-0.013,0.067-0.026,0.134-0.039,0.202c-0.031,0.167-0.042,0.332-0.067,0.499
			c-0.044,0.292-0.092,0.583-0.12,0.881c-0.028,0.3-0.035,0.597-0.044,0.895c-0.005,0.167-0.025,0.329-0.025,0.497
			c0,0.032,0.004,0.063,0.005,0.095c0.002,0.351,0.027,0.697,0.053,1.044c0.012,0.154,0.015,0.312,0.031,0.465
			c0.035,0.322,0.091,0.639,0.146,0.956c0.031,0.178,0.052,0.358,0.089,0.534c0.054,0.256,0.128,0.505,0.195,0.757
			c0.061,0.229,0.114,0.461,0.185,0.686c0.058,0.18,0.13,0.353,0.194,0.529c0.103,0.285,0.201,0.572,0.32,0.85
			c0.052,0.12,0.115,0.234,0.17,0.353c0.148,0.32,0.297,0.641,0.466,0.948c0.059,0.107,0.129,0.208,0.191,0.314
			c0.179,0.307,0.359,0.614,0.559,0.906c0.099,0.146,0.211,0.28,0.315,0.422c0.177,0.241,0.351,0.486,0.542,0.716
			c0.167,0.202,0.352,0.391,0.53,0.583c0.144,0.156,0.279,0.318,0.43,0.468c0.229,0.228,0.474,0.438,0.717,0.651
			c0.117,0.102,0.226,0.212,0.345,0.31c0.248,0.204,0.512,0.391,0.773,0.578c0.131,0.095,0.256,0.197,0.39,0.287
			c0.232,0.155,0.477,0.293,0.718,0.436c0.181,0.107,0.356,0.223,0.542,0.322c0.195,0.104,0.4,0.192,0.6,0.289
			c0.248,0.119,0.493,0.243,0.749,0.349c0.156,0.064,0.319,0.116,0.478,0.175c0.312,0.117,0.623,0.234,0.944,0.331
			c0.138,0.041,0.283,0.07,0.423,0.108c0.345,0.093,0.691,0.183,1.045,0.251c0.031,0.006,0.06,0.016,0.09,0.021
			c0.216,0.041,0.431,0.06,0.647,0.091c0.22,0.031,0.437,0.071,0.66,0.093c0.493,0.049,0.984,0.076,1.471,0.076
			c0.022,0,0.044-0.003,0.067-0.003l487.859-0.319C1494.074,952.713,1495.083,952.831,1496.111,952.831z M1120.187,691.704
			c36.279-41.613,79.998-62.712,129.941-62.712c0.172,0,0.339-0.02,0.51-0.026c0.171,0.006,0.338,0.026,0.51,0.026
			c49.943,0,93.661,21.099,129.941,62.712c42.913,49.221,75.42,126.826,96.742,230.815l-454.447,0.297
			c2.021-9.871,4.144-19.5,6.365-28.894c0.455,0.041,0.914,0.069,1.378,0.069h201c8.284,0,15-6.716,15-15s-6.716-15-15-15h-194.741
			C1058.021,788.98,1085.752,731.2,1120.187,691.704z"/>
		<path fill="#5A5050" d="M1288.128,893.992h96c8.284,0,15-6.716,15-15s-6.716-15-15-15h-96c-8.284,0-15,6.716-15,15
			S1279.844,893.992,1288.128,893.992z"/>
	</g>
</g>
</svg>
