<?xml version="1.0" encoding="utf-8"?>
<!-- Generator: Adobe Illustrator 16.0.0, SVG Export Plug-In . SVG Version: 6.00 Build 0)  -->
<!DOCTYPE svg PUBLIC "-//W3C//DTD SVG 1.1//EN" "http://www.w3.org/Graphics/SVG/1.1/DTD/svg11.dtd">
<svg version="1.1" id="Layer_1" xmlns="http://www.w3.org/2000/svg" xmlns:xlink="http://www.w3.org/1999/xlink" x="0px" y="0px"
	 width="2500px" height="1500px" viewBox="-500 0 2500 1500" enable-background="new -500 0 2500 1500" xml:space="preserve">
<path fill="#96DE2A" d="M1026.479,691.781c67.475,80.146,108.989,181.701,112.625,274.298h-64.058
	c-2.882-89.807-34.901-186.785-88.966-268.193c-36.141-54.417-78.739-97.419-124.595-126.626
	C920.844,592.954,978.114,634.335,1026.479,691.781z"/>
<path fill="#96DE2A" d="M507.899,691.781c48.357-57.446,105.632-98.827,164.991-120.521
	c-45.855,29.207-88.455,72.209-124.595,126.626c-54.069,81.408-86.083,178.387-88.966,268.193h-64.063
	C398.904,873.482,440.424,771.929,507.899,691.781z"/>
<path fill="#96DE2A" d="M719.325,754.264c15.991-11.22,32.097-16.912,47.866-16.912c15.765,0,31.869,5.692,47.859,16.912
	c16.979,11.919,33.531,29.98,47.873,52.236c6.451,10.021,12.344,22.749,17.59,36.329h-39.908c-7.275,0-13.176,5.896-13.176,13.174
	c0,7.274,5.899,13.176,13.176,13.176h49.064c3.704,11.781,6.908,23.35,9.525,33.584H635.182c2.617-10.234,5.821-21.803,9.525-33.584
	h146.104c7.278,0,13.175-5.9,13.175-13.176c0-7.276-5.896-13.174-13.175-13.174H653.863c5.247-13.58,11.134-26.311,17.59-36.329
	C685.794,784.244,702.348,766.183,719.325,754.264z"/>
<g>
	<path fill="#5B5050" d="M1237.826,956.754h-87.469c-3.088-99.143-47.034-207.961-118.902-293.329
		C952.664,569.834,850.809,516.16,752.007,516.16S551.35,569.835,472.559,663.426c-71.871,85.369-115.807,194.181-118.891,293.329
		h-87.479c-7.277,0-13.174,5.896-13.174,13.175c0,7.276,5.897,13.178,13.174,13.178h971.638c7.276,0,13.174-5.9,13.174-13.178
		C1251,962.65,1245.104,956.754,1237.826,956.754z M752.007,547.729c71.282,16.294,142.921,72.01,196.943,153.35
		c51.254,77.178,81.675,168.841,84.56,253.611H470.5c2.889-84.771,33.304-176.435,84.563-253.611
		C609.089,619.739,680.721,564.024,752.007,547.729z M1011.298,680.396c67.471,80.149,108.991,181.703,112.626,274.296h-64.062
		c-2.882-89.807-34.897-186.782-88.964-268.19c-36.142-54.416-78.741-97.419-124.594-126.628
		C905.661,581.568,962.936,622.949,1011.298,680.396z M492.717,680.396c48.361-57.445,105.635-98.826,164.991-120.522
		c-45.852,29.209-88.455,72.212-124.593,126.628c-54.067,81.408-86.086,178.384-88.964,268.19h-64.063
		C383.725,862.099,425.241,760.545,492.717,680.396z"/>
	<path fill="#5B5050" d="M592.901,912.746c2.502,3.147,6.297,4.98,10.318,4.98h297.574c0.008,0,0.019,0,0.034,0
		c7.277,0,13.178-5.899,13.178-13.174c0-1.39-0.217-2.729-0.616-3.986c-8.804-37.648-23.438-88.598-43.498-119.726
		c-16.166-25.09-35.146-45.674-54.883-59.533c-20.513-14.394-41.712-21.693-63.002-21.693c-21.293,0-42.489,7.3-63.001,21.697
		c-19.737,13.854-38.716,34.439-54.884,59.529c-20.238,31.407-34.955,82.988-43.735,120.725
		C589.475,905.483,590.402,909.6,592.901,912.746z M704.143,742.879c15.994-11.223,32.096-16.913,47.864-16.913
		c15.77,0,31.87,5.69,47.861,16.913c16.979,11.918,33.534,29.981,47.872,52.235c6.456,10.017,12.345,22.751,17.59,36.328h-39.906
		c-7.275,0-13.177,5.899-13.177,13.174c0,7.277,5.9,13.175,13.177,13.175h49.063c3.705,11.785,6.907,23.352,9.523,33.588H620
		c2.62-10.236,5.822-21.803,9.528-33.588h146.1c7.278,0,13.176-5.896,13.176-13.175c0-7.273-5.896-13.174-13.176-13.174H638.679
		c5.25-13.577,11.14-26.313,17.591-36.328C670.614,772.86,687.167,754.797,704.143,742.879z"/>
</g>
</svg>
