<?xml version="1.0" encoding="utf-8"?>
<!-- Generator: Adobe Illustrator 16.0.0, SVG Export Plug-In . SVG Version: 6.00 Build 0)  -->
<!DOCTYPE svg PUBLIC "-//W3C//DTD SVG 1.1//EN" "http://www.w3.org/Graphics/SVG/1.1/DTD/svg11.dtd">
<svg version="1.1" id="Layer_1" xmlns="http://www.w3.org/2000/svg" xmlns:xlink="http://www.w3.org/1999/xlink" x="0px" y="0px"
	 width="1500px" height="1500px" viewBox="500 0 1500 1500" enable-background="new 500 0 1500 1500" xml:space="preserve">
<path fill="#212529" d="M1250,759.179c-67.058,0-130.102-26.114-177.519-73.531s-73.531-110.461-73.531-177.519
	s26.114-130.102,73.531-177.519s110.461-73.531,177.519-73.531s130.102,26.114,177.519,73.531s73.53,110.461,73.53,177.519
	s-26.113,130.102-73.53,177.519S1317.058,759.179,1250,759.179z M1250,337.079c-94.317,0-171.049,76.733-171.049,171.05
	c0,94.317,76.732,171.049,171.049,171.049c94.316,0,171.049-76.732,171.049-171.049C1421.049,413.812,1344.316,337.079,1250,337.079
	z"/>
<g>
	<path fill="#212529" d="M1250,1169.577c-161.241,0-319.182-14.229-469.437-42.292c-11.363-2.122-21.252-9.057-27.12-19.016
		c-5.868-9.96-7.14-21.971-3.489-32.938c22.442-67.418,66.32-129.697,126.888-180.104c59.171-49.245,133.254-86.287,214.24-107.122
		c8.995-2.314,18.515-1.426,26.926,2.512c41.469,19.414,85.877,29.258,131.992,29.258c46.113,0,90.521-9.844,131.993-29.257
		c8.411-3.937,17.93-4.824,26.924-2.511c80.985,20.834,155.068,57.876,214.24,107.12c60.568,50.406,104.445,112.686,126.888,180.104
		c3.651,10.968,2.379,22.979-3.488,32.938c-5.868,9.959-15.757,16.894-27.12,19.016
		C1569.181,1155.348,1411.24,1169.577,1250,1169.577z M844.585,1057.298c130.538,21.431,266.664,32.279,405.415,32.279
		c138.75,0,274.876-10.849,405.414-32.279c-46.062-85.93-138.66-155.397-253.204-188.124
		c-48.196,20.379-99.329,30.701-152.21,30.701c-52.883,0-104.015-10.322-152.211-30.703
		C983.245,901.9,890.647,971.368,844.585,1057.298z"/>
</g>
</svg>
